<?xml version="1.0" encoding="utf-8"?>
<svg xmlns="http://www.w3.org/2000/svg" xmlns:xlink="http://www.w3.org/1999/xlink" width="600" height="400" viewBox="0 0 2400 1600">
<defs>
  <clipPath id="clip150">
    <rect x="0" y="0" width="2400" height="1600"/>
  </clipPath>
</defs>
<path clip-path="url(#clip150)" d="M0 1600 L2400 1600 L2400 8.88178e-14 L0 8.88178e-14  Z" fill="#ffffff" fill-rule="evenodd" fill-opacity="1"/>
<defs>
  <clipPath id="clip151">
    <rect x="480" y="0" width="1681" height="1600"/>
  </clipPath>
</defs>
<path clip-path="url(#clip150)" d="M112.177 1486.45 L2352.76 1486.45 L2352.76 47.2441 L112.177 47.2441  Z" fill="#ffffff" fill-rule="evenodd" fill-opacity="1"/>
<defs>
  <clipPath id="clip152">
    <rect x="112" y="47" width="2242" height="1440"/>
  </clipPath>
</defs>
<polyline clip-path="url(#clip152)" style="stroke:#000000; stroke-linecap:round; stroke-linejoin:round; stroke-width:2; stroke-opacity:0.1; fill:none" points="175.59,1486.45 175.59,47.2441 "/>
<polyline clip-path="url(#clip152)" style="stroke:#000000; stroke-linecap:round; stroke-linejoin:round; stroke-width:2; stroke-opacity:0.1; fill:none" points="598.34,1486.45 598.34,47.2441 "/>
<polyline clip-path="url(#clip152)" style="stroke:#000000; stroke-linecap:round; stroke-linejoin:round; stroke-width:2; stroke-opacity:0.1; fill:none" points="1021.09,1486.45 1021.09,47.2441 "/>
<polyline clip-path="url(#clip152)" style="stroke:#000000; stroke-linecap:round; stroke-linejoin:round; stroke-width:2; stroke-opacity:0.1; fill:none" points="1443.84,1486.45 1443.84,47.2441 "/>
<polyline clip-path="url(#clip152)" style="stroke:#000000; stroke-linecap:round; stroke-linejoin:round; stroke-width:2; stroke-opacity:0.1; fill:none" points="1866.59,1486.45 1866.59,47.2441 "/>
<polyline clip-path="url(#clip152)" style="stroke:#000000; stroke-linecap:round; stroke-linejoin:round; stroke-width:2; stroke-opacity:0.1; fill:none" points="2289.34,1486.45 2289.34,47.2441 "/>
<polyline clip-path="url(#clip152)" style="stroke:#000000; stroke-linecap:round; stroke-linejoin:round; stroke-width:2; stroke-opacity:0.1; fill:none" points="112.177,1276 2352.76,1276 "/>
<polyline clip-path="url(#clip152)" style="stroke:#000000; stroke-linecap:round; stroke-linejoin:round; stroke-width:2; stroke-opacity:0.1; fill:none" points="112.177,936.563 2352.76,936.563 "/>
<polyline clip-path="url(#clip152)" style="stroke:#000000; stroke-linecap:round; stroke-linejoin:round; stroke-width:2; stroke-opacity:0.1; fill:none" points="112.177,597.129 2352.76,597.129 "/>
<polyline clip-path="url(#clip152)" style="stroke:#000000; stroke-linecap:round; stroke-linejoin:round; stroke-width:2; stroke-opacity:0.1; fill:none" points="112.177,257.694 2352.76,257.694 "/>
<polyline clip-path="url(#clip150)" style="stroke:#000000; stroke-linecap:round; stroke-linejoin:round; stroke-width:4; stroke-opacity:1; fill:none" points="112.177,1486.45 2352.76,1486.45 "/>
<polyline clip-path="url(#clip150)" style="stroke:#000000; stroke-linecap:round; stroke-linejoin:round; stroke-width:4; stroke-opacity:1; fill:none" points="175.59,1486.45 175.59,1467.55 "/>
<polyline clip-path="url(#clip150)" style="stroke:#000000; stroke-linecap:round; stroke-linejoin:round; stroke-width:4; stroke-opacity:1; fill:none" points="598.34,1486.45 598.34,1467.55 "/>
<polyline clip-path="url(#clip150)" style="stroke:#000000; stroke-linecap:round; stroke-linejoin:round; stroke-width:4; stroke-opacity:1; fill:none" points="1021.09,1486.45 1021.09,1467.55 "/>
<polyline clip-path="url(#clip150)" style="stroke:#000000; stroke-linecap:round; stroke-linejoin:round; stroke-width:4; stroke-opacity:1; fill:none" points="1443.84,1486.45 1443.84,1467.55 "/>
<polyline clip-path="url(#clip150)" style="stroke:#000000; stroke-linecap:round; stroke-linejoin:round; stroke-width:4; stroke-opacity:1; fill:none" points="1866.59,1486.45 1866.59,1467.55 "/>
<polyline clip-path="url(#clip150)" style="stroke:#000000; stroke-linecap:round; stroke-linejoin:round; stroke-width:4; stroke-opacity:1; fill:none" points="2289.34,1486.45 2289.34,1467.55 "/>
<path clip-path="url(#clip150)" d="M165.972 1544.91 L173.611 1544.91 L173.611 1518.55 L165.3 1520.21 L165.3 1515.95 L173.564 1514.29 L178.24 1514.29 L178.24 1544.91 L185.879 1544.91 L185.879 1548.85 L165.972 1548.85 L165.972 1544.91 Z" fill="#000000" fill-rule="nonzero" fill-opacity="1" /><path clip-path="url(#clip150)" d="M592.993 1544.91 L609.313 1544.91 L609.313 1548.85 L587.368 1548.85 L587.368 1544.91 Q590.03 1542.16 594.614 1537.53 Q599.22 1532.88 600.401 1531.53 Q602.646 1529.01 603.526 1527.27 Q604.428 1525.51 604.428 1523.82 Q604.428 1521.07 602.484 1519.33 Q600.563 1517.6 597.461 1517.6 Q595.262 1517.6 592.808 1518.36 Q590.378 1519.13 587.6 1520.68 L587.6 1515.95 Q590.424 1514.82 592.878 1514.24 Q595.331 1513.66 597.368 1513.66 Q602.739 1513.66 605.933 1516.35 Q609.127 1519.03 609.127 1523.52 Q609.127 1525.65 608.317 1527.57 Q607.53 1529.47 605.424 1532.07 Q604.845 1532.74 601.743 1535.95 Q598.641 1539.15 592.993 1544.91 Z" fill="#000000" fill-rule="nonzero" fill-opacity="1" /><path clip-path="url(#clip150)" d="M1025.34 1530.21 Q1028.7 1530.93 1030.57 1533.2 Q1032.47 1535.47 1032.47 1538.8 Q1032.47 1543.92 1028.95 1546.72 Q1025.43 1549.52 1018.95 1549.52 Q1016.77 1549.52 1014.46 1549.08 Q1012.17 1548.66 1009.71 1547.81 L1009.71 1543.29 Q1011.66 1544.43 1013.97 1545.01 Q1016.29 1545.58 1018.81 1545.58 Q1023.21 1545.58 1025.5 1543.85 Q1027.82 1542.11 1027.82 1538.8 Q1027.82 1535.75 1025.66 1534.03 Q1023.53 1532.3 1019.71 1532.3 L1015.69 1532.3 L1015.69 1528.45 L1019.9 1528.45 Q1023.35 1528.45 1025.18 1527.09 Q1027.01 1525.7 1027.01 1523.11 Q1027.01 1520.45 1025.11 1519.03 Q1023.23 1517.6 1019.71 1517.6 Q1017.79 1517.6 1015.59 1518.01 Q1013.39 1518.43 1010.76 1519.31 L1010.76 1515.14 Q1013.42 1514.4 1015.73 1514.03 Q1018.07 1513.66 1020.13 1513.66 Q1025.45 1513.66 1028.56 1516.09 Q1031.66 1518.5 1031.66 1522.62 Q1031.66 1525.49 1030.01 1527.48 Q1028.37 1529.45 1025.34 1530.21 Z" fill="#000000" fill-rule="nonzero" fill-opacity="1" /><path clip-path="url(#clip150)" d="M1446.85 1518.36 L1435.05 1536.81 L1446.85 1536.81 L1446.85 1518.36 M1445.62 1514.29 L1451.5 1514.29 L1451.5 1536.81 L1456.43 1536.81 L1456.43 1540.7 L1451.5 1540.7 L1451.5 1548.85 L1446.85 1548.85 L1446.85 1540.7 L1431.25 1540.7 L1431.25 1536.19 L1445.62 1514.29 Z" fill="#000000" fill-rule="nonzero" fill-opacity="1" /><path clip-path="url(#clip150)" d="M1856.87 1514.29 L1875.23 1514.29 L1875.23 1518.22 L1861.15 1518.22 L1861.15 1526.7 Q1862.17 1526.35 1863.19 1526.19 Q1864.21 1526 1865.23 1526 Q1871.01 1526 1874.39 1529.17 Q1877.77 1532.34 1877.77 1537.76 Q1877.77 1543.34 1874.3 1546.44 Q1870.83 1549.52 1864.51 1549.52 Q1862.33 1549.52 1860.06 1549.15 Q1857.82 1548.78 1855.41 1548.04 L1855.41 1543.34 Q1857.5 1544.47 1859.72 1545.03 Q1861.94 1545.58 1864.42 1545.58 Q1868.42 1545.58 1870.76 1543.48 Q1873.1 1541.37 1873.1 1537.76 Q1873.1 1534.15 1870.76 1532.04 Q1868.42 1529.94 1864.42 1529.94 Q1862.54 1529.94 1860.67 1530.35 Q1858.81 1530.77 1856.87 1531.65 L1856.87 1514.29 Z" fill="#000000" fill-rule="nonzero" fill-opacity="1" /><path clip-path="url(#clip150)" d="M2289.75 1529.7 Q2286.6 1529.7 2284.75 1531.86 Q2282.92 1534.01 2282.92 1537.76 Q2282.92 1541.49 2284.75 1543.66 Q2286.6 1545.82 2289.75 1545.82 Q2292.9 1545.82 2294.73 1543.66 Q2296.58 1541.49 2296.58 1537.76 Q2296.58 1534.01 2294.73 1531.86 Q2292.9 1529.7 2289.75 1529.7 M2299.03 1515.05 L2299.03 1519.31 Q2297.27 1518.48 2295.47 1518.04 Q2293.68 1517.6 2291.92 1517.6 Q2287.29 1517.6 2284.84 1520.72 Q2282.41 1523.85 2282.06 1530.17 Q2283.43 1528.15 2285.49 1527.09 Q2287.55 1526 2290.03 1526 Q2295.23 1526 2298.24 1529.17 Q2301.28 1532.32 2301.28 1537.76 Q2301.28 1543.08 2298.13 1546.3 Q2294.98 1549.52 2289.75 1549.52 Q2283.75 1549.52 2280.58 1544.94 Q2277.41 1540.33 2277.41 1531.6 Q2277.41 1523.41 2281.3 1518.55 Q2285.19 1513.66 2291.74 1513.66 Q2293.5 1513.66 2295.28 1514.01 Q2297.09 1514.36 2299.03 1515.05 Z" fill="#000000" fill-rule="nonzero" fill-opacity="1" /><polyline clip-path="url(#clip150)" style="stroke:#000000; stroke-linecap:round; stroke-linejoin:round; stroke-width:4; stroke-opacity:1; fill:none" points="112.177,1486.45 112.177,47.2441 "/>
<polyline clip-path="url(#clip150)" style="stroke:#000000; stroke-linecap:round; stroke-linejoin:round; stroke-width:4; stroke-opacity:1; fill:none" points="112.177,1276 131.075,1276 "/>
<polyline clip-path="url(#clip150)" style="stroke:#000000; stroke-linecap:round; stroke-linejoin:round; stroke-width:4; stroke-opacity:1; fill:none" points="112.177,936.563 131.075,936.563 "/>
<polyline clip-path="url(#clip150)" style="stroke:#000000; stroke-linecap:round; stroke-linejoin:round; stroke-width:4; stroke-opacity:1; fill:none" points="112.177,597.129 131.075,597.129 "/>
<polyline clip-path="url(#clip150)" style="stroke:#000000; stroke-linecap:round; stroke-linejoin:round; stroke-width:4; stroke-opacity:1; fill:none" points="112.177,257.694 131.075,257.694 "/>
<path clip-path="url(#clip150)" d="M59.8578 1289.34 L76.1772 1289.34 L76.1772 1293.28 L54.2328 1293.28 L54.2328 1289.34 Q56.8949 1286.59 61.4782 1281.96 Q66.0846 1277.31 67.2652 1275.96 Q69.5105 1273.44 70.3902 1271.7 Q71.2929 1269.95 71.2929 1268.26 Q71.2929 1265.5 69.3485 1263.76 Q67.4272 1262.03 64.3254 1262.03 Q62.1263 1262.03 59.6726 1262.79 Q57.2421 1263.56 54.4643 1265.11 L54.4643 1260.38 Q57.2884 1259.25 59.7421 1258.67 Q62.1958 1258.09 64.2328 1258.09 Q69.6031 1258.09 72.7976 1260.78 Q75.992 1263.46 75.992 1267.95 Q75.992 1270.08 75.1818 1272.01 Q74.3948 1273.9 72.2883 1276.5 Q71.7096 1277.17 68.6078 1280.38 Q65.5059 1283.58 59.8578 1289.34 Z" fill="#000000" fill-rule="nonzero" fill-opacity="1" /><path clip-path="url(#clip150)" d="M66.5939 923.357 L54.7884 941.806 L66.5939 941.806 L66.5939 923.357 M65.367 919.283 L71.2466 919.283 L71.2466 941.806 L76.1772 941.806 L76.1772 945.695 L71.2466 945.695 L71.2466 953.843 L66.5939 953.843 L66.5939 945.695 L50.9921 945.695 L50.9921 941.181 L65.367 919.283 Z" fill="#000000" fill-rule="nonzero" fill-opacity="1" /><path clip-path="url(#clip150)" d="M64.6495 595.265 Q61.5013 595.265 59.6495 597.418 Q57.8208 599.571 57.8208 603.321 Q57.8208 607.047 59.6495 609.223 Q61.5013 611.376 64.6495 611.376 Q67.7976 611.376 69.6263 609.223 Q71.4781 607.047 71.4781 603.321 Q71.4781 599.571 69.6263 597.418 Q67.7976 595.265 64.6495 595.265 M73.9318 580.612 L73.9318 584.872 Q72.1726 584.038 70.367 583.599 Q68.5846 583.159 66.8254 583.159 Q62.1958 583.159 59.7421 586.284 Q57.3115 589.409 56.9643 595.728 Q58.33 593.714 60.3902 592.649 Q62.4504 591.561 64.9272 591.561 Q70.1355 591.561 73.1448 594.733 Q76.1772 597.881 76.1772 603.321 Q76.1772 608.645 73.029 611.862 Q69.8809 615.08 64.6495 615.08 Q58.6541 615.08 55.4828 610.497 Q52.3116 605.89 52.3116 597.163 Q52.3116 588.969 56.2004 584.108 Q60.0893 579.224 66.6402 579.224 Q68.3994 579.224 70.1818 579.571 Q71.9874 579.918 73.9318 580.612 Z" fill="#000000" fill-rule="nonzero" fill-opacity="1" /><path clip-path="url(#clip150)" d="M64.3254 258.562 Q60.9921 258.562 59.0708 260.344 Q57.1726 262.127 57.1726 265.252 Q57.1726 268.377 59.0708 270.159 Q60.9921 271.941 64.3254 271.941 Q67.6587 271.941 69.58 270.159 Q71.5013 268.353 71.5013 265.252 Q71.5013 262.127 69.58 260.344 Q67.6819 258.562 64.3254 258.562 M59.6495 256.571 Q56.6402 255.83 54.9504 253.77 Q53.2838 251.71 53.2838 248.747 Q53.2838 244.603 56.2236 242.196 Q59.1865 239.789 64.3254 239.789 Q69.4874 239.789 72.4272 242.196 Q75.367 244.603 75.367 248.747 Q75.367 251.71 73.6772 253.77 Q72.0105 255.83 69.0244 256.571 Q72.404 257.358 74.279 259.65 Q76.1772 261.941 76.1772 265.252 Q76.1772 270.275 73.0985 272.96 Q70.0429 275.645 64.3254 275.645 Q58.6078 275.645 55.5291 272.96 Q52.4736 270.275 52.4736 265.252 Q52.4736 261.941 54.3717 259.65 Q56.2699 257.358 59.6495 256.571 M57.9365 249.187 Q57.9365 251.872 59.6032 253.377 Q61.293 254.881 64.3254 254.881 Q67.3346 254.881 69.0244 253.377 Q70.7374 251.872 70.7374 249.187 Q70.7374 246.502 69.0244 244.997 Q67.3346 243.492 64.3254 243.492 Q61.293 243.492 59.6032 244.997 Q57.9365 246.502 57.9365 249.187 Z" fill="#000000" fill-rule="nonzero" fill-opacity="1" /><defs>
  <pattern id="pattern1" patternUnits="userSpaceOnUse" x="0" y="0" width="32" height="32">
<g transform="scale(4)"><path d="M-4,4 l8,-8 M4,12 l8,-8 M-4,12 l16,-16" style="stroke:#009af9; stroke-width:1; stroke-opacity:1"/></g></pattern>
</defs>
<path clip-path="url(#clip152)" d="M175.59 1106.28 L598.34 1106.28 L1021.09 1106.28 L1443.84 936.563 L1866.59 766.846 L2289.34 87.9763 L2289.34 936.563 L1866.59 1106.28 L1443.84 1106.28 L1021.09 1106.28 L598.34 1276 L175.59 1445.72  Z" fill="url(#pattern1)"/>
<polyline clip-path="url(#clip152)" style="stroke:#009af9; stroke-linecap:round; stroke-linejoin:round; stroke-width:4; stroke-opacity:1; fill:none" points="175.59,1106.28 598.34,1106.28 1021.09,1106.28 1443.84,936.563 1866.59,766.846 2289.34,87.9763 "/>
<path clip-path="url(#clip150)" d="M186.863 198.898 L463.351 198.898 L463.351 95.2176 L186.863 95.2176  Z" fill="#ffffff" fill-rule="evenodd" fill-opacity="1"/>
<polyline clip-path="url(#clip150)" style="stroke:#000000; stroke-linecap:round; stroke-linejoin:round; stroke-width:4; stroke-opacity:1; fill:none" points="186.863,198.898 463.351,198.898 463.351,95.2176 186.863,95.2176 186.863,198.898 "/>
<defs>
  <pattern id="pattern2" patternUnits="userSpaceOnUse" x="0" y="0" width="32" height="32">
<g transform="scale(4)"><path d="M-4,4 l8,-8 M4,12 l8,-8 M-4,12 l16,-16" style="stroke:#009af9; stroke-width:1; stroke-opacity:1"/></g></pattern>
</defs>
<path clip-path="url(#clip150)" d="M211.758 167.794 L361.13 167.794 L361.13 126.322 L211.758 126.322 L211.758 167.794  Z" fill="url(#pattern2)"/>
<polyline clip-path="url(#clip150)" style="stroke:#009af9; stroke-linecap:round; stroke-linejoin:round; stroke-width:4; stroke-opacity:1; fill:none" points="211.758,126.322 361.13,126.322 "/>
<path clip-path="url(#clip150)" d="M399.868 166.745 Q398.063 171.375 396.35 172.787 Q394.637 174.199 391.766 174.199 L388.364 174.199 L388.364 170.634 L390.864 170.634 Q392.623 170.634 393.595 169.8 Q394.567 168.967 395.748 165.865 L396.512 163.921 L386.026 138.412 L390.54 138.412 L398.641 158.689 L406.743 138.412 L411.257 138.412 L399.868 166.745 Z" fill="#000000" fill-rule="nonzero" fill-opacity="1" /><path clip-path="url(#clip150)" d="M418.549 160.402 L426.188 160.402 L426.188 134.037 L417.877 135.703 L417.877 131.444 L426.141 129.778 L430.817 129.778 L430.817 160.402 L438.456 160.402 L438.456 164.338 L418.549 164.338 L418.549 160.402 Z" fill="#000000" fill-rule="nonzero" fill-opacity="1" /></svg>
