<?xml version="1.0" encoding="utf-8"?>
<svg xmlns="http://www.w3.org/2000/svg" xmlns:xlink="http://www.w3.org/1999/xlink" width="600" height="400" viewBox="0 0 2400 1600">
<defs>
  <clipPath id="clip370">
    <rect x="0" y="0" width="2400" height="1600"/>
  </clipPath>
</defs>
<path clip-path="url(#clip370)" d="M0 1600 L2400 1600 L2400 8.88178e-14 L0 8.88178e-14  Z" fill="#ffffff" fill-rule="evenodd" fill-opacity="1"/>
<defs>
  <clipPath id="clip371">
    <rect x="480" y="0" width="1681" height="1600"/>
  </clipPath>
</defs>
<path clip-path="url(#clip370)" d="M277.431 1486.45 L2352.76 1486.45 L2352.76 47.2441 L277.431 47.2441  Z" fill="#ffffff" fill-rule="evenodd" fill-opacity="1"/>
<defs>
  <clipPath id="clip372">
    <rect x="277" y="47" width="2076" height="1440"/>
  </clipPath>
</defs>
<polyline clip-path="url(#clip372)" style="stroke:#000000; stroke-linecap:round; stroke-linejoin:round; stroke-width:2; stroke-opacity:0.1; fill:none" points="334.207,1486.45 334.207,47.2441 "/>
<polyline clip-path="url(#clip372)" style="stroke:#000000; stroke-linecap:round; stroke-linejoin:round; stroke-width:2; stroke-opacity:0.1; fill:none" points="824.16,1486.45 824.16,47.2441 "/>
<polyline clip-path="url(#clip372)" style="stroke:#000000; stroke-linecap:round; stroke-linejoin:round; stroke-width:2; stroke-opacity:0.1; fill:none" points="1314.11,1486.45 1314.11,47.2441 "/>
<polyline clip-path="url(#clip372)" style="stroke:#000000; stroke-linecap:round; stroke-linejoin:round; stroke-width:2; stroke-opacity:0.1; fill:none" points="1804.07,1486.45 1804.07,47.2441 "/>
<polyline clip-path="url(#clip372)" style="stroke:#000000; stroke-linecap:round; stroke-linejoin:round; stroke-width:2; stroke-opacity:0.1; fill:none" points="2294.02,1486.45 2294.02,47.2441 "/>
<polyline clip-path="url(#clip372)" style="stroke:#000000; stroke-linecap:round; stroke-linejoin:round; stroke-width:2; stroke-opacity:0.1; fill:none" points="277.431,1295.33 2352.76,1295.33 "/>
<polyline clip-path="url(#clip372)" style="stroke:#000000; stroke-linecap:round; stroke-linejoin:round; stroke-width:2; stroke-opacity:0.1; fill:none" points="277.431,993.463 2352.76,993.463 "/>
<polyline clip-path="url(#clip372)" style="stroke:#000000; stroke-linecap:round; stroke-linejoin:round; stroke-width:2; stroke-opacity:0.1; fill:none" points="277.431,691.599 2352.76,691.599 "/>
<polyline clip-path="url(#clip372)" style="stroke:#000000; stroke-linecap:round; stroke-linejoin:round; stroke-width:2; stroke-opacity:0.1; fill:none" points="277.431,389.735 2352.76,389.735 "/>
<polyline clip-path="url(#clip372)" style="stroke:#000000; stroke-linecap:round; stroke-linejoin:round; stroke-width:2; stroke-opacity:0.1; fill:none" points="277.431,87.8706 2352.76,87.8706 "/>
<polyline clip-path="url(#clip370)" style="stroke:#000000; stroke-linecap:round; stroke-linejoin:round; stroke-width:4; stroke-opacity:1; fill:none" points="277.431,1486.45 2352.76,1486.45 "/>
<polyline clip-path="url(#clip370)" style="stroke:#000000; stroke-linecap:round; stroke-linejoin:round; stroke-width:4; stroke-opacity:1; fill:none" points="334.207,1486.45 334.207,1467.55 "/>
<polyline clip-path="url(#clip370)" style="stroke:#000000; stroke-linecap:round; stroke-linejoin:round; stroke-width:4; stroke-opacity:1; fill:none" points="824.16,1486.45 824.16,1467.55 "/>
<polyline clip-path="url(#clip370)" style="stroke:#000000; stroke-linecap:round; stroke-linejoin:round; stroke-width:4; stroke-opacity:1; fill:none" points="1314.11,1486.45 1314.11,1467.55 "/>
<polyline clip-path="url(#clip370)" style="stroke:#000000; stroke-linecap:round; stroke-linejoin:round; stroke-width:4; stroke-opacity:1; fill:none" points="1804.07,1486.45 1804.07,1467.55 "/>
<polyline clip-path="url(#clip370)" style="stroke:#000000; stroke-linecap:round; stroke-linejoin:round; stroke-width:4; stroke-opacity:1; fill:none" points="2294.02,1486.45 2294.02,1467.55 "/>
<path clip-path="url(#clip370)" d="M334.207 1517.37 Q330.596 1517.37 328.767 1520.93 Q326.961 1524.47 326.961 1531.6 Q326.961 1538.71 328.767 1542.27 Q330.596 1545.82 334.207 1545.82 Q337.841 1545.82 339.647 1542.27 Q341.475 1538.71 341.475 1531.6 Q341.475 1524.47 339.647 1520.93 Q337.841 1517.37 334.207 1517.37 M334.207 1513.66 Q340.017 1513.66 343.072 1518.27 Q346.151 1522.85 346.151 1531.6 Q346.151 1540.33 343.072 1544.94 Q340.017 1549.52 334.207 1549.52 Q328.397 1549.52 325.318 1544.94 Q322.262 1540.33 322.262 1531.6 Q322.262 1522.85 325.318 1518.27 Q328.397 1513.66 334.207 1513.66 Z" fill="#000000" fill-rule="nonzero" fill-opacity="1" /><path clip-path="url(#clip370)" d="M787.852 1544.91 L804.172 1544.91 L804.172 1548.85 L782.227 1548.85 L782.227 1544.91 Q784.889 1542.16 789.473 1537.53 Q794.079 1532.88 795.26 1531.53 Q797.505 1529.01 798.385 1527.27 Q799.288 1525.51 799.288 1523.82 Q799.288 1521.07 797.343 1519.33 Q795.422 1517.6 792.32 1517.6 Q790.121 1517.6 787.667 1518.36 Q785.237 1519.13 782.459 1520.68 L782.459 1515.95 Q785.283 1514.82 787.737 1514.24 Q790.19 1513.66 792.227 1513.66 Q797.598 1513.66 800.792 1516.35 Q803.987 1519.03 803.987 1523.52 Q803.987 1525.65 803.176 1527.57 Q802.389 1529.47 800.283 1532.07 Q799.704 1532.74 796.602 1535.95 Q793.501 1539.15 787.852 1544.91 Z" fill="#000000" fill-rule="nonzero" fill-opacity="1" /><path clip-path="url(#clip370)" d="M814.033 1514.29 L832.389 1514.29 L832.389 1518.22 L818.315 1518.22 L818.315 1526.7 Q819.334 1526.35 820.352 1526.19 Q821.371 1526 822.389 1526 Q828.176 1526 831.556 1529.17 Q834.936 1532.34 834.936 1537.76 Q834.936 1543.34 831.463 1546.44 Q827.991 1549.52 821.672 1549.52 Q819.496 1549.52 817.227 1549.15 Q814.982 1548.78 812.575 1548.04 L812.575 1543.34 Q814.658 1544.47 816.88 1545.03 Q819.102 1545.58 821.579 1545.58 Q825.584 1545.58 827.922 1543.48 Q830.26 1541.37 830.26 1537.76 Q830.26 1534.15 827.922 1532.04 Q825.584 1529.94 821.579 1529.94 Q819.704 1529.94 817.829 1530.35 Q815.977 1530.77 814.033 1531.65 L814.033 1514.29 Z" fill="#000000" fill-rule="nonzero" fill-opacity="1" /><path clip-path="url(#clip370)" d="M854.148 1517.37 Q850.537 1517.37 848.709 1520.93 Q846.903 1524.47 846.903 1531.6 Q846.903 1538.71 848.709 1542.27 Q850.537 1545.82 854.148 1545.82 Q857.783 1545.82 859.588 1542.27 Q861.417 1538.71 861.417 1531.6 Q861.417 1524.47 859.588 1520.93 Q857.783 1517.37 854.148 1517.37 M854.148 1513.66 Q859.959 1513.66 863.014 1518.27 Q866.093 1522.85 866.093 1531.6 Q866.093 1540.33 863.014 1544.94 Q859.959 1549.52 854.148 1549.52 Q848.338 1549.52 845.26 1544.94 Q842.204 1540.33 842.204 1531.6 Q842.204 1522.85 845.26 1518.27 Q848.338 1513.66 854.148 1513.66 Z" fill="#000000" fill-rule="nonzero" fill-opacity="1" /><path clip-path="url(#clip370)" d="M1273.73 1514.29 L1292.09 1514.29 L1292.09 1518.22 L1278.01 1518.22 L1278.01 1526.7 Q1279.03 1526.35 1280.05 1526.19 Q1281.07 1526 1282.09 1526 Q1287.88 1526 1291.25 1529.17 Q1294.63 1532.34 1294.63 1537.76 Q1294.63 1543.34 1291.16 1546.44 Q1287.69 1549.52 1281.37 1549.52 Q1279.19 1549.52 1276.93 1549.15 Q1274.68 1548.78 1272.27 1548.04 L1272.27 1543.34 Q1274.36 1544.47 1276.58 1545.03 Q1278.8 1545.58 1281.28 1545.58 Q1285.28 1545.58 1287.62 1543.48 Q1289.96 1541.37 1289.96 1537.76 Q1289.96 1534.15 1287.62 1532.04 Q1285.28 1529.94 1281.28 1529.94 Q1279.4 1529.94 1277.53 1530.35 Q1275.68 1530.77 1273.73 1531.65 L1273.73 1514.29 Z" fill="#000000" fill-rule="nonzero" fill-opacity="1" /><path clip-path="url(#clip370)" d="M1313.85 1517.37 Q1310.24 1517.37 1308.41 1520.93 Q1306.6 1524.47 1306.6 1531.6 Q1306.6 1538.71 1308.41 1542.27 Q1310.24 1545.82 1313.85 1545.82 Q1317.48 1545.82 1319.29 1542.27 Q1321.12 1538.71 1321.12 1531.6 Q1321.12 1524.47 1319.29 1520.93 Q1317.48 1517.37 1313.85 1517.37 M1313.85 1513.66 Q1319.66 1513.66 1322.71 1518.27 Q1325.79 1522.85 1325.79 1531.6 Q1325.79 1540.33 1322.71 1544.94 Q1319.66 1549.52 1313.85 1549.52 Q1308.04 1549.52 1304.96 1544.94 Q1301.9 1540.33 1301.9 1531.6 Q1301.9 1522.85 1304.96 1518.27 Q1308.04 1513.66 1313.85 1513.66 Z" fill="#000000" fill-rule="nonzero" fill-opacity="1" /><path clip-path="url(#clip370)" d="M1344.01 1517.37 Q1340.4 1517.37 1338.57 1520.93 Q1336.76 1524.47 1336.76 1531.6 Q1336.76 1538.71 1338.57 1542.27 Q1340.4 1545.82 1344.01 1545.82 Q1347.64 1545.82 1349.45 1542.27 Q1351.28 1538.71 1351.28 1531.6 Q1351.28 1524.47 1349.45 1520.93 Q1347.64 1517.37 1344.01 1517.37 M1344.01 1513.66 Q1349.82 1513.66 1352.87 1518.27 Q1355.95 1522.85 1355.95 1531.6 Q1355.95 1540.33 1352.87 1544.94 Q1349.82 1549.52 1344.01 1549.52 Q1338.2 1549.52 1335.12 1544.94 Q1332.06 1540.33 1332.06 1531.6 Q1332.06 1522.85 1335.12 1518.27 Q1338.2 1513.66 1344.01 1513.66 Z" fill="#000000" fill-rule="nonzero" fill-opacity="1" /><path clip-path="url(#clip370)" d="M1762.34 1514.29 L1784.56 1514.29 L1784.56 1516.28 L1772.02 1548.85 L1767.13 1548.85 L1778.94 1518.22 L1762.34 1518.22 L1762.34 1514.29 Z" fill="#000000" fill-rule="nonzero" fill-opacity="1" /><path clip-path="url(#clip370)" d="M1793.73 1514.29 L1812.09 1514.29 L1812.09 1518.22 L1798.01 1518.22 L1798.01 1526.7 Q1799.03 1526.35 1800.05 1526.19 Q1801.07 1526 1802.09 1526 Q1807.87 1526 1811.25 1529.17 Q1814.63 1532.34 1814.63 1537.76 Q1814.63 1543.34 1811.16 1546.44 Q1807.69 1549.52 1801.37 1549.52 Q1799.19 1549.52 1796.93 1549.15 Q1794.68 1548.78 1792.27 1548.04 L1792.27 1543.34 Q1794.36 1544.47 1796.58 1545.03 Q1798.8 1545.58 1801.28 1545.58 Q1805.28 1545.58 1807.62 1543.48 Q1809.96 1541.37 1809.96 1537.76 Q1809.96 1534.15 1807.62 1532.04 Q1805.28 1529.94 1801.28 1529.94 Q1799.4 1529.94 1797.53 1530.35 Q1795.68 1530.77 1793.73 1531.65 L1793.73 1514.29 Z" fill="#000000" fill-rule="nonzero" fill-opacity="1" /><path clip-path="url(#clip370)" d="M1833.85 1517.37 Q1830.24 1517.37 1828.41 1520.93 Q1826.6 1524.47 1826.6 1531.6 Q1826.6 1538.71 1828.41 1542.27 Q1830.24 1545.82 1833.85 1545.82 Q1837.48 1545.82 1839.29 1542.27 Q1841.12 1538.71 1841.12 1531.6 Q1841.12 1524.47 1839.29 1520.93 Q1837.48 1517.37 1833.85 1517.37 M1833.85 1513.66 Q1839.66 1513.66 1842.71 1518.27 Q1845.79 1522.85 1845.79 1531.6 Q1845.79 1540.33 1842.71 1544.94 Q1839.66 1549.52 1833.85 1549.52 Q1828.04 1549.52 1824.96 1544.94 Q1821.9 1540.33 1821.9 1531.6 Q1821.9 1522.85 1824.96 1518.27 Q1828.04 1513.66 1833.85 1513.66 Z" fill="#000000" fill-rule="nonzero" fill-opacity="1" /><path clip-path="url(#clip370)" d="M2238.55 1544.91 L2246.18 1544.91 L2246.18 1518.55 L2237.87 1520.21 L2237.87 1515.95 L2246.14 1514.29 L2250.81 1514.29 L2250.81 1544.91 L2258.45 1544.91 L2258.45 1548.85 L2238.55 1548.85 L2238.55 1544.91 Z" fill="#000000" fill-rule="nonzero" fill-opacity="1" /><path clip-path="url(#clip370)" d="M2277.9 1517.37 Q2274.29 1517.37 2272.46 1520.93 Q2270.65 1524.47 2270.65 1531.6 Q2270.65 1538.71 2272.46 1542.27 Q2274.29 1545.82 2277.9 1545.82 Q2281.53 1545.82 2283.34 1542.27 Q2285.17 1538.71 2285.17 1531.6 Q2285.17 1524.47 2283.34 1520.93 Q2281.53 1517.37 2277.9 1517.37 M2277.9 1513.66 Q2283.71 1513.66 2286.76 1518.27 Q2289.84 1522.85 2289.84 1531.6 Q2289.84 1540.33 2286.76 1544.94 Q2283.71 1549.52 2277.9 1549.52 Q2272.09 1549.52 2269.01 1544.94 Q2265.95 1540.33 2265.95 1531.6 Q2265.95 1522.85 2269.01 1518.27 Q2272.09 1513.66 2277.9 1513.66 Z" fill="#000000" fill-rule="nonzero" fill-opacity="1" /><path clip-path="url(#clip370)" d="M2308.06 1517.37 Q2304.45 1517.37 2302.62 1520.93 Q2300.81 1524.47 2300.81 1531.6 Q2300.81 1538.71 2302.62 1542.27 Q2304.45 1545.82 2308.06 1545.82 Q2311.69 1545.82 2313.5 1542.27 Q2315.33 1538.71 2315.33 1531.6 Q2315.33 1524.47 2313.5 1520.93 Q2311.69 1517.37 2308.06 1517.37 M2308.06 1513.66 Q2313.87 1513.66 2316.93 1518.27 Q2320 1522.85 2320 1531.6 Q2320 1540.33 2316.93 1544.94 Q2313.87 1549.52 2308.06 1549.52 Q2302.25 1549.52 2299.17 1544.94 Q2296.12 1540.33 2296.12 1531.6 Q2296.12 1522.85 2299.17 1518.27 Q2302.25 1513.66 2308.06 1513.66 Z" fill="#000000" fill-rule="nonzero" fill-opacity="1" /><path clip-path="url(#clip370)" d="M2338.22 1517.37 Q2334.61 1517.37 2332.78 1520.93 Q2330.98 1524.47 2330.98 1531.6 Q2330.98 1538.71 2332.78 1542.27 Q2334.61 1545.82 2338.22 1545.82 Q2341.86 1545.82 2343.66 1542.27 Q2345.49 1538.71 2345.49 1531.6 Q2345.49 1524.47 2343.66 1520.93 Q2341.86 1517.37 2338.22 1517.37 M2338.22 1513.66 Q2344.03 1513.66 2347.09 1518.27 Q2350.17 1522.85 2350.17 1531.6 Q2350.17 1540.33 2347.09 1544.94 Q2344.03 1549.52 2338.22 1549.52 Q2332.41 1549.52 2329.33 1544.94 Q2326.28 1540.33 2326.28 1531.6 Q2326.28 1522.85 2329.33 1518.27 Q2332.41 1513.66 2338.22 1513.66 Z" fill="#000000" fill-rule="nonzero" fill-opacity="1" /><polyline clip-path="url(#clip370)" style="stroke:#000000; stroke-linecap:round; stroke-linejoin:round; stroke-width:4; stroke-opacity:1; fill:none" points="277.431,1486.45 277.431,47.2441 "/>
<polyline clip-path="url(#clip370)" style="stroke:#000000; stroke-linecap:round; stroke-linejoin:round; stroke-width:4; stroke-opacity:1; fill:none" points="277.431,1295.33 296.329,1295.33 "/>
<polyline clip-path="url(#clip370)" style="stroke:#000000; stroke-linecap:round; stroke-linejoin:round; stroke-width:4; stroke-opacity:1; fill:none" points="277.431,993.463 296.329,993.463 "/>
<polyline clip-path="url(#clip370)" style="stroke:#000000; stroke-linecap:round; stroke-linejoin:round; stroke-width:4; stroke-opacity:1; fill:none" points="277.431,691.599 296.329,691.599 "/>
<polyline clip-path="url(#clip370)" style="stroke:#000000; stroke-linecap:round; stroke-linejoin:round; stroke-width:4; stroke-opacity:1; fill:none" points="277.431,389.735 296.329,389.735 "/>
<polyline clip-path="url(#clip370)" style="stroke:#000000; stroke-linecap:round; stroke-linejoin:round; stroke-width:4; stroke-opacity:1; fill:none" points="277.431,87.8706 296.329,87.8706 "/>
<path clip-path="url(#clip370)" d="M57.7745 1315.12 L74.0939 1315.12 L74.0939 1319.05 L52.1495 1319.05 L52.1495 1315.12 Q54.8115 1312.36 59.3949 1307.74 Q64.0013 1303.08 65.1819 1301.74 Q67.4272 1299.22 68.3068 1297.48 Q69.2096 1295.72 69.2096 1294.03 Q69.2096 1291.28 67.2652 1289.54 Q65.3439 1287.8 62.2421 1287.8 Q60.043 1287.8 57.5893 1288.57 Q55.1588 1289.33 52.381 1290.88 L52.381 1286.16 Q55.2051 1285.03 57.6588 1284.45 Q60.1124 1283.87 62.1495 1283.87 Q67.5198 1283.87 70.7142 1286.55 Q73.9087 1289.24 73.9087 1293.73 Q73.9087 1295.86 73.0985 1297.78 Q72.3115 1299.68 70.205 1302.27 Q69.6263 1302.94 66.5245 1306.16 Q63.4226 1309.36 57.7745 1315.12 Z" fill="#000000" fill-rule="nonzero" fill-opacity="1" /><path clip-path="url(#clip370)" d="M83.9086 1313.18 L88.7928 1313.18 L88.7928 1319.05 L83.9086 1319.05 L83.9086 1313.18 Z" fill="#000000" fill-rule="nonzero" fill-opacity="1" /><path clip-path="url(#clip370)" d="M108.978 1287.57 Q105.367 1287.57 103.538 1291.14 Q101.733 1294.68 101.733 1301.81 Q101.733 1308.92 103.538 1312.48 Q105.367 1316.02 108.978 1316.02 Q112.612 1316.02 114.418 1312.48 Q116.246 1308.92 116.246 1301.81 Q116.246 1294.68 114.418 1291.14 Q112.612 1287.57 108.978 1287.57 M108.978 1283.87 Q114.788 1283.87 117.844 1288.48 Q120.922 1293.06 120.922 1301.81 Q120.922 1310.54 117.844 1315.14 Q114.788 1319.73 108.978 1319.73 Q103.168 1319.73 100.089 1315.14 Q97.0335 1310.54 97.0335 1301.81 Q97.0335 1293.06 100.089 1288.48 Q103.168 1283.87 108.978 1283.87 Z" fill="#000000" fill-rule="nonzero" fill-opacity="1" /><path clip-path="url(#clip370)" d="M157.311 1293.59 L146.732 1304.22 L157.311 1314.8 L154.556 1317.6 L143.931 1306.97 L133.306 1317.6 L130.575 1314.8 L141.131 1304.22 L130.575 1293.59 L133.306 1290.79 L143.931 1301.42 L154.556 1290.79 L157.311 1293.59 Z" fill="#000000" fill-rule="nonzero" fill-opacity="1" /><path clip-path="url(#clip370)" d="M169.672 1315.12 L177.311 1315.12 L177.311 1288.75 L169.001 1290.42 L169.001 1286.16 L177.265 1284.49 L181.94 1284.49 L181.94 1315.12 L189.579 1315.12 L189.579 1319.05 L169.672 1319.05 L169.672 1315.12 Z" fill="#000000" fill-rule="nonzero" fill-opacity="1" /><path clip-path="url(#clip370)" d="M209.024 1287.57 Q205.413 1287.57 203.584 1291.14 Q201.778 1294.68 201.778 1301.81 Q201.778 1308.92 203.584 1312.48 Q205.413 1316.02 209.024 1316.02 Q212.658 1316.02 214.463 1312.48 Q216.292 1308.92 216.292 1301.81 Q216.292 1294.68 214.463 1291.14 Q212.658 1287.57 209.024 1287.57 M209.024 1283.87 Q214.834 1283.87 217.889 1288.48 Q220.968 1293.06 220.968 1301.81 Q220.968 1310.54 217.889 1315.14 Q214.834 1319.73 209.024 1319.73 Q203.214 1319.73 200.135 1315.14 Q197.079 1310.54 197.079 1301.81 Q197.079 1293.06 200.135 1288.48 Q203.214 1283.87 209.024 1283.87 Z" fill="#000000" fill-rule="nonzero" fill-opacity="1" /><path clip-path="url(#clip370)" d="M233.645 1266.87 L224.053 1281.86 L233.645 1281.86 L233.645 1266.87 M232.648 1263.56 L237.425 1263.56 L237.425 1281.86 L241.431 1281.86 L241.431 1285.02 L237.425 1285.02 L237.425 1291.64 L233.645 1291.64 L233.645 1285.02 L220.968 1285.02 L220.968 1281.36 L232.648 1263.56 Z" fill="#000000" fill-rule="nonzero" fill-opacity="1" /><path clip-path="url(#clip370)" d="M66.5939 986.705 L54.7884 1005.15 L66.5939 1005.15 L66.5939 986.705 M65.367 982.631 L71.2466 982.631 L71.2466 1005.15 L76.1772 1005.15 L76.1772 1009.04 L71.2466 1009.04 L71.2466 1017.19 L66.5939 1017.19 L66.5939 1009.04 L50.9921 1009.04 L50.9921 1004.53 L65.367 982.631 Z" fill="#000000" fill-rule="nonzero" fill-opacity="1" /><path clip-path="url(#clip370)" d="M83.9086 1011.31 L88.7928 1011.31 L88.7928 1017.19 L83.9086 1017.19 L83.9086 1011.31 Z" fill="#000000" fill-rule="nonzero" fill-opacity="1" /><path clip-path="url(#clip370)" d="M108.978 985.709 Q105.367 985.709 103.538 989.274 Q101.733 992.816 101.733 999.945 Q101.733 1007.05 103.538 1010.62 Q105.367 1014.16 108.978 1014.16 Q112.612 1014.16 114.418 1010.62 Q116.246 1007.05 116.246 999.945 Q116.246 992.816 114.418 989.274 Q112.612 985.709 108.978 985.709 M108.978 982.006 Q114.788 982.006 117.844 986.612 Q120.922 991.195 120.922 999.945 Q120.922 1008.67 117.844 1013.28 Q114.788 1017.86 108.978 1017.86 Q103.168 1017.86 100.089 1013.28 Q97.0335 1008.67 97.0335 999.945 Q97.0335 991.195 100.089 986.612 Q103.168 982.006 108.978 982.006 Z" fill="#000000" fill-rule="nonzero" fill-opacity="1" /><path clip-path="url(#clip370)" d="M157.311 991.728 L146.732 1002.35 L157.311 1012.93 L154.556 1015.73 L143.931 1005.11 L133.306 1015.73 L130.575 1012.93 L141.131 1002.35 L130.575 991.728 L133.306 988.927 L143.931 999.552 L154.556 988.927 L157.311 991.728 Z" fill="#000000" fill-rule="nonzero" fill-opacity="1" /><path clip-path="url(#clip370)" d="M169.672 1013.26 L177.311 1013.26 L177.311 986.89 L169.001 988.556 L169.001 984.297 L177.265 982.631 L181.94 982.631 L181.94 1013.26 L189.579 1013.26 L189.579 1017.19 L169.672 1017.19 L169.672 1013.26 Z" fill="#000000" fill-rule="nonzero" fill-opacity="1" /><path clip-path="url(#clip370)" d="M209.024 985.709 Q205.413 985.709 203.584 989.274 Q201.778 992.816 201.778 999.945 Q201.778 1007.05 203.584 1010.62 Q205.413 1014.16 209.024 1014.16 Q212.658 1014.16 214.463 1010.62 Q216.292 1007.05 216.292 999.945 Q216.292 992.816 214.463 989.274 Q212.658 985.709 209.024 985.709 M209.024 982.006 Q214.834 982.006 217.889 986.612 Q220.968 991.195 220.968 999.945 Q220.968 1008.67 217.889 1013.28 Q214.834 1017.86 209.024 1017.86 Q203.214 1017.86 200.135 1013.28 Q197.079 1008.67 197.079 999.945 Q197.079 991.195 200.135 986.612 Q203.214 982.006 209.024 982.006 Z" fill="#000000" fill-rule="nonzero" fill-opacity="1" /><path clip-path="url(#clip370)" d="M233.645 965.01 L224.053 980 L233.645 980 L233.645 965.01 M232.648 961.7 L237.425 961.7 L237.425 980 L241.431 980 L241.431 983.16 L237.425 983.16 L237.425 989.78 L233.645 989.78 L233.645 983.16 L220.968 983.16 L220.968 979.492 L232.648 961.7 Z" fill="#000000" fill-rule="nonzero" fill-opacity="1" /><path clip-path="url(#clip370)" d="M64.3254 696.183 Q61.1773 696.183 59.3254 698.336 Q57.4967 700.489 57.4967 704.239 Q57.4967 707.965 59.3254 710.141 Q61.1773 712.294 64.3254 712.294 Q67.4735 712.294 69.3022 710.141 Q71.1541 707.965 71.1541 704.239 Q71.1541 700.489 69.3022 698.336 Q67.4735 696.183 64.3254 696.183 M73.6077 681.53 L73.6077 685.79 Q71.8485 684.956 70.0429 684.516 Q68.2606 684.077 66.5013 684.077 Q61.8717 684.077 59.418 687.202 Q56.9875 690.327 56.6402 696.646 Q58.006 694.632 60.0662 693.567 Q62.1263 692.479 64.6032 692.479 Q69.8115 692.479 72.8207 695.651 Q75.8531 698.799 75.8531 704.239 Q75.8531 709.563 72.705 712.78 Q69.5568 715.998 64.3254 715.998 Q58.33 715.998 55.1588 711.414 Q51.9875 706.808 51.9875 698.081 Q51.9875 689.887 55.8764 685.026 Q59.7652 680.141 66.3161 680.141 Q68.0754 680.141 69.8578 680.489 Q71.6633 680.836 73.6077 681.53 Z" fill="#000000" fill-rule="nonzero" fill-opacity="1" /><path clip-path="url(#clip370)" d="M83.9086 709.447 L88.7928 709.447 L88.7928 715.326 L83.9086 715.326 L83.9086 709.447 Z" fill="#000000" fill-rule="nonzero" fill-opacity="1" /><path clip-path="url(#clip370)" d="M108.978 683.845 Q105.367 683.845 103.538 687.41 Q101.733 690.952 101.733 698.081 Q101.733 705.188 103.538 708.752 Q105.367 712.294 108.978 712.294 Q112.612 712.294 114.418 708.752 Q116.246 705.188 116.246 698.081 Q116.246 690.952 114.418 687.41 Q112.612 683.845 108.978 683.845 M108.978 680.141 Q114.788 680.141 117.844 684.748 Q120.922 689.331 120.922 698.081 Q120.922 706.808 117.844 711.414 Q114.788 715.998 108.978 715.998 Q103.168 715.998 100.089 711.414 Q97.0335 706.808 97.0335 698.081 Q97.0335 689.331 100.089 684.748 Q103.168 680.141 108.978 680.141 Z" fill="#000000" fill-rule="nonzero" fill-opacity="1" /><path clip-path="url(#clip370)" d="M157.311 689.864 L146.732 700.489 L157.311 711.067 L154.556 713.868 L143.931 703.243 L133.306 713.868 L130.575 711.067 L141.131 700.489 L130.575 689.864 L133.306 687.063 L143.931 697.688 L154.556 687.063 L157.311 689.864 Z" fill="#000000" fill-rule="nonzero" fill-opacity="1" /><path clip-path="url(#clip370)" d="M169.672 711.391 L177.311 711.391 L177.311 685.026 L169.001 686.692 L169.001 682.433 L177.265 680.766 L181.94 680.766 L181.94 711.391 L189.579 711.391 L189.579 715.326 L169.672 715.326 L169.672 711.391 Z" fill="#000000" fill-rule="nonzero" fill-opacity="1" /><path clip-path="url(#clip370)" d="M209.024 683.845 Q205.413 683.845 203.584 687.41 Q201.778 690.952 201.778 698.081 Q201.778 705.188 203.584 708.752 Q205.413 712.294 209.024 712.294 Q212.658 712.294 214.463 708.752 Q216.292 705.188 216.292 698.081 Q216.292 690.952 214.463 687.41 Q212.658 683.845 209.024 683.845 M209.024 680.141 Q214.834 680.141 217.889 684.748 Q220.968 689.331 220.968 698.081 Q220.968 706.808 217.889 711.414 Q214.834 715.998 209.024 715.998 Q203.214 715.998 200.135 711.414 Q197.079 706.808 197.079 698.081 Q197.079 689.331 200.135 684.748 Q203.214 680.141 209.024 680.141 Z" fill="#000000" fill-rule="nonzero" fill-opacity="1" /><path clip-path="url(#clip370)" d="M233.645 663.146 L224.053 678.136 L233.645 678.136 L233.645 663.146 M232.648 659.836 L237.425 659.836 L237.425 678.136 L241.431 678.136 L241.431 681.296 L237.425 681.296 L237.425 687.916 L233.645 687.916 L233.645 681.296 L220.968 681.296 L220.968 677.628 L232.648 659.836 Z" fill="#000000" fill-rule="nonzero" fill-opacity="1" /><path clip-path="url(#clip370)" d="M63.7467 397.05 Q60.4134 397.05 58.4921 398.833 Q56.5939 400.615 56.5939 403.74 Q56.5939 406.865 58.4921 408.648 Q60.4134 410.43 63.7467 410.43 Q67.08 410.43 69.0013 408.648 Q70.9226 406.842 70.9226 403.74 Q70.9226 400.615 69.0013 398.833 Q67.1032 397.05 63.7467 397.05 M59.0708 395.06 Q56.0615 394.319 54.3717 392.259 Q52.7051 390.199 52.7051 387.236 Q52.7051 383.092 55.6449 380.685 Q58.6078 378.277 63.7467 378.277 Q68.9087 378.277 71.8485 380.685 Q74.7883 383.092 74.7883 387.236 Q74.7883 390.199 73.0985 392.259 Q71.4318 394.319 68.4457 395.06 Q71.8253 395.847 73.7003 398.138 Q75.5985 400.43 75.5985 403.74 Q75.5985 408.763 72.5198 411.448 Q69.4642 414.134 63.7467 414.134 Q58.0291 414.134 54.9504 411.448 Q51.8949 408.763 51.8949 403.74 Q51.8949 400.43 53.793 398.138 Q55.6912 395.847 59.0708 395.06 M57.3578 387.675 Q57.3578 390.361 59.0245 391.865 Q60.7143 393.37 63.7467 393.37 Q66.7559 393.37 68.4457 391.865 Q70.1587 390.361 70.1587 387.675 Q70.1587 384.99 68.4457 383.486 Q66.7559 381.981 63.7467 381.981 Q60.7143 381.981 59.0245 383.486 Q57.3578 384.99 57.3578 387.675 Z" fill="#000000" fill-rule="nonzero" fill-opacity="1" /><path clip-path="url(#clip370)" d="M83.9086 407.583 L88.7928 407.583 L88.7928 413.462 L83.9086 413.462 L83.9086 407.583 Z" fill="#000000" fill-rule="nonzero" fill-opacity="1" /><path clip-path="url(#clip370)" d="M108.978 381.981 Q105.367 381.981 103.538 385.546 Q101.733 389.087 101.733 396.217 Q101.733 403.323 103.538 406.888 Q105.367 410.43 108.978 410.43 Q112.612 410.43 114.418 406.888 Q116.246 403.323 116.246 396.217 Q116.246 389.087 114.418 385.546 Q112.612 381.981 108.978 381.981 M108.978 378.277 Q114.788 378.277 117.844 382.884 Q120.922 387.467 120.922 396.217 Q120.922 404.944 117.844 409.55 Q114.788 414.134 108.978 414.134 Q103.168 414.134 100.089 409.55 Q97.0335 404.944 97.0335 396.217 Q97.0335 387.467 100.089 382.884 Q103.168 378.277 108.978 378.277 Z" fill="#000000" fill-rule="nonzero" fill-opacity="1" /><path clip-path="url(#clip370)" d="M157.311 387.999 L146.732 398.624 L157.311 409.203 L154.556 412.004 L143.931 401.379 L133.306 412.004 L130.575 409.203 L141.131 398.624 L130.575 387.999 L133.306 385.199 L143.931 395.824 L154.556 385.199 L157.311 387.999 Z" fill="#000000" fill-rule="nonzero" fill-opacity="1" /><path clip-path="url(#clip370)" d="M169.672 409.527 L177.311 409.527 L177.311 383.162 L169.001 384.828 L169.001 380.569 L177.265 378.902 L181.94 378.902 L181.94 409.527 L189.579 409.527 L189.579 413.462 L169.672 413.462 L169.672 409.527 Z" fill="#000000" fill-rule="nonzero" fill-opacity="1" /><path clip-path="url(#clip370)" d="M209.024 381.981 Q205.413 381.981 203.584 385.546 Q201.778 389.087 201.778 396.217 Q201.778 403.323 203.584 406.888 Q205.413 410.43 209.024 410.43 Q212.658 410.43 214.463 406.888 Q216.292 403.323 216.292 396.217 Q216.292 389.087 214.463 385.546 Q212.658 381.981 209.024 381.981 M209.024 378.277 Q214.834 378.277 217.889 382.884 Q220.968 387.467 220.968 396.217 Q220.968 404.944 217.889 409.55 Q214.834 414.134 209.024 414.134 Q203.214 414.134 200.135 409.55 Q197.079 404.944 197.079 396.217 Q197.079 387.467 200.135 382.884 Q203.214 378.277 209.024 378.277 Z" fill="#000000" fill-rule="nonzero" fill-opacity="1" /><path clip-path="url(#clip370)" d="M233.645 361.282 L224.053 376.272 L233.645 376.272 L233.645 361.282 M232.648 357.972 L237.425 357.972 L237.425 376.272 L241.431 376.272 L241.431 379.432 L237.425 379.432 L237.425 386.052 L233.645 386.052 L233.645 379.432 L220.968 379.432 L220.968 375.764 L232.648 357.972 Z" fill="#000000" fill-rule="nonzero" fill-opacity="1" /><path clip-path="url(#clip370)" d="M56.8515 107.663 L64.4903 107.663 L64.4903 81.2975 L56.1802 82.9641 L56.1802 78.7049 L64.444 77.0382 L69.1199 77.0382 L69.1199 107.663 L76.7588 107.663 L76.7588 111.598 L56.8515 111.598 L56.8515 107.663 Z" fill="#000000" fill-rule="nonzero" fill-opacity="1" /><path clip-path="url(#clip370)" d="M86.2032 105.719 L91.0874 105.719 L91.0874 111.598 L86.2032 111.598 L86.2032 105.719 Z" fill="#000000" fill-rule="nonzero" fill-opacity="1" /><path clip-path="url(#clip370)" d="M111.272 80.1169 Q107.661 80.1169 105.833 83.6817 Q104.027 87.2234 104.027 94.3529 Q104.027 101.459 105.833 105.024 Q107.661 108.566 111.272 108.566 Q114.907 108.566 116.712 105.024 Q118.541 101.459 118.541 94.3529 Q118.541 87.2234 116.712 83.6817 Q114.907 80.1169 111.272 80.1169 M111.272 76.4132 Q117.083 76.4132 120.138 81.0197 Q123.217 85.603 123.217 94.3529 Q123.217 103.08 120.138 107.686 Q117.083 112.27 111.272 112.27 Q105.462 112.27 102.384 107.686 Q99.3281 103.08 99.3281 94.3529 Q99.3281 85.603 102.384 81.0197 Q105.462 76.4132 111.272 76.4132 Z" fill="#000000" fill-rule="nonzero" fill-opacity="1" /><path clip-path="url(#clip370)" d="M159.606 86.1354 L149.027 96.7603 L159.606 107.339 L156.851 110.14 L146.226 99.515 L135.601 110.14 L132.87 107.339 L143.425 96.7603 L132.87 86.1354 L135.601 83.3345 L146.226 93.9594 L156.851 83.3345 L159.606 86.1354 Z" fill="#000000" fill-rule="nonzero" fill-opacity="1" /><path clip-path="url(#clip370)" d="M171.967 107.663 L179.605 107.663 L179.605 81.2975 L171.295 82.9641 L171.295 78.7049 L179.559 77.0382 L184.235 77.0382 L184.235 107.663 L191.874 107.663 L191.874 111.598 L171.967 111.598 L171.967 107.663 Z" fill="#000000" fill-rule="nonzero" fill-opacity="1" /><path clip-path="url(#clip370)" d="M211.318 80.1169 Q207.707 80.1169 205.878 83.6817 Q204.073 87.2234 204.073 94.3529 Q204.073 101.459 205.878 105.024 Q207.707 108.566 211.318 108.566 Q214.952 108.566 216.758 105.024 Q218.587 101.459 218.587 94.3529 Q218.587 87.2234 216.758 83.6817 Q214.952 80.1169 211.318 80.1169 M211.318 76.4132 Q217.128 76.4132 220.184 81.0197 Q223.263 85.603 223.263 94.3529 Q223.263 103.08 220.184 107.686 Q217.128 112.27 211.318 112.27 Q205.508 112.27 202.429 107.686 Q199.374 103.08 199.374 94.3529 Q199.374 85.603 202.429 81.0197 Q205.508 76.4132 211.318 76.4132 Z" fill="#000000" fill-rule="nonzero" fill-opacity="1" /><path clip-path="url(#clip370)" d="M224.448 56.1078 L239.362 56.1078 L239.362 59.3051 L227.927 59.3051 L227.927 66.1888 Q228.754 65.9067 229.582 65.775 Q230.41 65.6246 231.237 65.6246 Q235.939 65.6246 238.685 68.2012 Q241.431 70.7779 241.431 75.1789 Q241.431 79.7116 238.61 82.2318 Q235.789 84.7332 230.654 84.7332 Q228.886 84.7332 227.043 84.4323 Q225.219 84.1314 223.263 83.5296 L223.263 79.7116 Q224.955 80.6332 226.761 81.0845 Q228.566 81.5359 230.579 81.5359 Q233.833 81.5359 235.732 79.8244 Q237.632 78.1129 237.632 75.1789 Q237.632 72.2449 235.732 70.5334 Q233.833 68.8219 230.579 68.8219 Q229.055 68.8219 227.532 69.1604 Q226.027 69.499 224.448 70.2137 L224.448 56.1078 Z" fill="#000000" fill-rule="nonzero" fill-opacity="1" /><polyline clip-path="url(#clip372)" style="stroke:#009af9; stroke-linecap:round; stroke-linejoin:round; stroke-width:4; stroke-opacity:1; fill:none" points="336.167,1445.72 338.126,1443.72 340.086,1441.43 342.046,1441.02 344.006,1439.78 345.966,1437.22 347.925,1433.84 349.885,1430.76 351.845,1428.83 353.805,1427.86 355.765,1426.82 357.724,1424.45 359.684,1423.51 361.644,1417.94 363.604,1417.61 365.564,1414.02 367.524,1413.58 369.483,1412.25 371.443,1412.1 373.403,1411.33 375.363,1405.99 377.323,1403.39 379.282,1401.92 381.242,1401.55 383.202,1401.09 385.162,1400.35 387.122,1399.91 389.081,1398.41 391.041,1397.61 393.001,1397.07 394.961,1396.62 396.921,1396.12 398.881,1395.68 400.84,1395.47 402.8,1395.26 404.76,1394.67 406.72,1393.78 408.68,1392.48 410.639,1389.09 412.599,1388.12 414.559,1385.46 416.519,1382.49 418.479,1378.67 420.439,1377.69 422.398,1377.33 424.358,1372.95 426.318,1371.91 428.278,1368.11 430.238,1367.53 432.197,1366.67 434.157,1365.9 436.117,1365.43 438.077,1365.24 440.037,1363.61 441.996,1363.34 443.956,1361.63 445.916,1361.6 447.876,1361.25 449.836,1360.8 451.796,1356.71 453.755,1356.05 455.715,1355.55 457.675,1354.99 459.635,1354.55 461.595,1353.83 463.554,1352.39 465.514,1350.57 467.474,1350.52 469.434,1350.31 471.394,1347.79 473.353,1346.09 475.313,1345.1 477.273,1342.07 479.233,1341.53 481.193,1340.12 483.153,1337.69 485.112,1336.53 487.072,1336.15 489.032,1334.9 490.992,1333.18 492.952,1331.29 494.911,1331.02 496.871,1330.89 498.831,1329.72 500.791,1328.06 502.751,1327.67 504.711,1318.6 506.67,1318.22 508.63,1317.71 510.59,1316.58 512.55,1315.19 514.51,1314 516.469,1313.53 518.429,1312.41 520.389,1311.58 522.349,1311.39 524.309,1309.56 526.268,1308.52 528.228,1307.08 530.188,1301.79 532.148,1299.34 534.108,1295.69 536.068,1291.43 538.027,1291.13 539.987,1290.72 541.947,1289.89 543.907,1287.58 545.867,1285.86 547.826,1285.82 549.786,1285.77 551.746,1285.65 553.706,1284.97 555.666,1284.64 557.625,1282.91 559.585,1282.15 561.545,1281.09 563.505,1280.73 565.465,1279.61 567.425,1277.79 569.384,1277.23 571.344,1277.11 573.304,1276.1 575.264,1271.75 577.224,1270.71 579.183,1270.27 581.143,1269.82 583.103,1268.76 585.063,1267.27 587.023,1266.71 588.982,1264.16 590.942,1264.02 592.902,1263.68 594.862,1261.91 596.822,1258.06 598.782,1251.32 600.741,1249.65 602.701,1247.95 604.661,1247.24 606.621,1243.86 608.581,1242.8 610.54,1236.93 612.5,1236.74 614.46,1233.63 616.42,1233.32 618.38,1232.84 620.34,1232.51 622.299,1231.89 624.259,1231.41 626.219,1230.41 628.179,1227.92 630.139,1227.72 632.098,1227.45 634.058,1221.48 636.018,1221.19 637.978,1219.03 639.938,1218.46 641.897,1216.53 643.857,1216.1 645.817,1215.85 647.777,1215.18 649.737,1211.7 651.697,1210.67 653.656,1204.98 655.616,1204.38 657.576,1203.67 659.536,1202.62 661.496,1201.75 663.455,1201.64 665.415,1200.09 667.375,1196.84 669.335,1196.71 671.295,1195.62 673.254,1190.72 675.214,1190.63 677.174,1188.63 679.134,1185.77 681.094,1182.19 683.054,1182.17 685.013,1180.88 686.973,1179.56 688.933,1179.53 690.893,1178.46 692.853,1178.02 694.812,1176.98 696.772,1175 698.732,1174.7 700.692,1174.55 702.652,1174.32 704.611,1174.05 706.571,1173 708.531,1169.13 710.491,1168.65 712.451,1165.39 714.411,1165.01 716.37,1162.82 718.33,1161.28 720.29,1159.88 722.25,1159.52 724.21,1159.41 726.169,1158.21 728.129,1155.43 730.089,1154.85 732.049,1154.61 734.009,1153.98 735.969,1152.17 737.928,1152.06 739.888,1151.88 741.848,1150.61 743.808,1147.4 745.768,1146.86 747.727,1145.89 749.687,1145.72 751.647,1145.5 753.607,1143.35 755.567,1139.69 757.526,1138.87 759.486,1138.07 761.446,1136.8 763.406,1135.67 765.366,1134.6 767.326,1132.23 769.285,1132.09 771.245,1131.99 773.205,1131.66 775.165,1128.05 777.125,1126.93 779.084,1120.46 781.044,1120.2 783.004,1116.19 784.964,1115.54 786.924,1115.42 788.883,1115.22 790.843,1113.54 792.803,1111.94 794.763,1111.22 796.723,1110.42 798.683,1109.21 800.642,1109.15 802.602,1108.01 804.562,1106.44 806.522,1106.24 808.482,1104.68 810.441,1104.29 812.401,1103.3 814.361,1103.28 816.321,1101.61 818.281,1100.53 820.24,1099.85 822.2,1097.62 824.16,1097.46 826.12,1095.3 828.08,1093.89 830.04,1093.53 831.999,1089.27 833.959,1086.39 835.919,1082.59 837.879,1082.32 839.839,1082.2 841.798,1081.53 843.758,1081.15 845.718,1080.82 847.678,1078.39 849.638,1076.66 851.598,1072.32 853.557,1072.2 855.517,1069.09 857.477,1068.34 859.437,1066.08 861.397,1065.31 863.356,1063.48 865.316,1063.31 867.276,1059.84 869.236,1059.65 871.196,1059.22 873.155,1056.64 875.115,1054.24 877.075,1053.23 879.035,1052.02 880.995,1049.47 882.955,1049.05 884.914,1047.24 886.874,1046.62 888.834,1045.32 890.794,1043.44 892.754,1039.45 894.713,1038.77 896.673,1038.4 898.633,1037.43 900.593,1036.25 902.553,1035.92 904.512,1034.43 906.472,1033.93 908.432,1029.63 910.392,1029.22 912.352,1027.88 914.312,1025.73 916.271,1024.77 918.231,1024.52 920.191,1023.11 922.151,1020.98 924.111,1020.93 926.07,1019.68 928.03,1018.16 929.99,1016.71 931.95,1016.68 933.91,1016.6 935.869,1016.5 937.829,1013.61 939.789,1012.96 941.749,1009.72 943.709,1006.22 945.669,1004.47 947.628,1004.06 949.588,1003.32 951.548,1000.39 953.508,1000.12 955.468,999.304 957.427,998.655 959.387,996.376 961.347,995.319 963.307,994.55 965.267,993.674 967.227,993.644 969.186,987.456 971.146,987.29 973.106,986.505 975.066,986.445 977.026,986.188 978.985,983.833 980.945,982.867 982.905,979.26 984.865,979.109 986.825,978.611 988.784,975.759 990.744,971.442 992.704,971.17 994.664,967.714 996.624,966.28 998.584,966.008 1000.54,965.903 1002.5,964.741 1004.46,962.643 1006.42,961.163 1008.38,958.99 1010.34,958.975 1012.3,958.507 1014.26,957.994 1016.22,957.934 1018.18,957.903 1020.14,957.586 1022.1,957.194 1024.06,955.639 1026.02,951.791 1027.98,949.874 1029.94,947.232 1031.9,946.689 1033.86,944.033 1035.82,943.58 1037.78,942.825 1039.74,939.595 1041.7,939.399 1043.66,938.961 1045.62,937.482 1047.58,935.369 1049.54,934.947 1051.5,934.75 1053.46,934.705 1055.42,934.645 1057.38,934.071 1059.34,930.826 1061.3,925.332 1063.26,924.819 1065.22,924.608 1067.18,918.495 1069.14,916.669 1071.1,916.533 1073.06,914.148 1075.02,912.895 1076.98,912.729 1078.94,912.397 1080.9,910.994 1082.86,908.428 1084.82,907.839 1086.78,907.567 1088.73,906.435 1090.69,906.269 1092.65,905.832 1094.61,905.636 1096.57,904.262 1098.53,903.87 1100.49,903.538 1102.45,902.979 1104.41,902.3 1106.37,901.711 1108.33,901.002 1110.29,900.67 1112.25,900.549 1114.21,899.628 1116.17,899.508 1118.13,898.678 1120.09,898.24 1122.05,898.104 1124.01,898.013 1125.97,895.267 1127.93,894.919 1129.89,894.135 1131.85,891.916 1133.81,891.554 1135.77,890.859 1137.73,889.682 1139.69,888.58 1141.65,888.55 1143.61,886.573 1145.57,886.12 1147.53,884.656 1149.49,881.954 1151.45,880.294 1153.41,879.358 1155.37,879.132 1157.33,878.86 1159.29,878.513 1161.25,877.592 1163.21,877.034 1165.17,875.736 1167.13,872.521 1169.09,871.359 1171.05,870.348 1173.01,870.061 1174.97,866.906 1176.93,865.789 1178.89,865.201 1180.85,864.703 1182.81,864.446 1184.77,860.205 1186.73,859.058 1188.69,858.122 1190.65,857.624 1192.61,857.005 1194.56,856.537 1196.52,853.881 1198.48,853.639 1200.44,852.009 1202.4,849.519 1204.36,848.523 1206.32,847.361 1208.28,845.172 1210.24,843.014 1212.2,841.459 1214.16,841.218 1216.12,837.565 1218.08,836.282 1220.04,835.92 1222,835.12 1223.96,833.792 1225.92,832.69 1227.88,829.792 1229.84,828.358 1231.8,826.275 1233.76,824.253 1235.72,823.046 1237.68,822.91 1239.64,819.785 1241.6,815.62 1243.56,814.608 1245.52,812.752 1247.48,809.356 1249.44,807.877 1251.4,804.571 1253.36,802.609 1255.32,800.119 1257.28,797.915 1259.24,796.632 1261.2,795.47 1263.16,794.474 1265.12,792.935 1267.08,792.542 1269.04,789.508 1271,788.558 1272.96,787.969 1274.92,787.003 1276.88,783.501 1278.84,779.064 1280.8,778.355 1282.76,774.294 1284.72,773.147 1286.68,771.668 1288.64,767.201 1290.6,766.567 1292.56,765.571 1294.52,764.605 1296.48,762.869 1298.43,762.401 1300.39,758.96 1302.35,756.545 1304.31,756.484 1306.27,753.858 1308.23,751.458 1310.19,746.961 1312.15,746.734 1314.11,746.176 1316.07,740.999 1318.03,740.848 1319.99,739.052 1321.95,738.659 1323.91,735.188 1325.87,735.113 1327.83,733.588 1329.79,732.894 1331.75,732.849 1333.71,730.539 1335.67,730.464 1337.63,730.041 1339.59,730.011 1341.55,729.86 1343.51,728.124 1345.47,728.049 1347.43,723.928 1349.39,720.729 1351.35,720.653 1353.31,718.797 1355.27,718.51 1357.23,718.435 1359.19,716.578 1361.15,716.261 1363.11,715.371 1365.07,714.782 1367.03,712.488 1368.99,711.809 1370.95,707.794 1372.91,707.401 1374.87,706.617 1376.83,706.149 1378.79,705.258 1380.75,698.904 1382.71,696.655 1384.67,696.429 1386.63,692.459 1388.59,691.644 1390.55,691.327 1392.51,689.048 1394.47,688.293 1396.43,686.301 1398.39,684.686 1400.35,684.082 1402.31,683.554 1404.26,683.388 1406.22,683.132 1408.18,680.007 1410.14,678.981 1412.1,678.438 1414.06,676.958 1416.02,676.641 1417.98,675.645 1419.94,675.6 1421.9,674.227 1423.86,672.823 1425.82,668.551 1427.78,668.385 1429.74,667.404 1431.7,666.167 1433.66,664.884 1435.62,663.691 1437.58,663.465 1439.54,661.201 1441.5,658.801 1443.46,658.605 1445.42,656.386 1447.38,655.254 1449.34,654.802 1451.3,653.866 1453.26,653.021 1455.22,650.892 1457.18,650.742 1459.14,648.961 1461.1,645.278 1463.06,645.112 1465.02,644.765 1466.98,634.999 1468.94,630.034 1470.9,628.313 1472.86,627.77 1474.82,627.573 1476.78,627.287 1478.74,624.268 1480.7,624.011 1482.66,620.48 1484.62,620.238 1486.58,619.665 1488.54,619.151 1490.5,618.819 1492.46,615.454 1494.42,614.503 1496.38,614.412 1498.34,613.763 1500.3,613.552 1502.26,613.099 1504.22,611.046 1506.18,610.458 1508.14,609.779 1510.09,608.797 1512.05,608.601 1514.01,606.156 1515.97,605.266 1517.93,602.141 1519.89,601.628 1521.85,599.787 1523.81,599.5 1525.77,599.032 1527.73,597.9 1529.69,597.568 1531.65,597.327 1533.61,594.595 1535.57,593.916 1537.53,593.523 1539.49,590.233 1541.45,589.086 1543.41,585.599 1545.37,585.358 1547.33,585.267 1549.29,583.909 1551.25,582.701 1553.21,581.147 1555.17,580.754 1557.13,580.543 1559.09,579.909 1561.05,579.713 1563.01,579.426 1564.97,577.555 1566.93,577.072 1568.89,573.721 1570.85,573.51 1572.81,572.574 1574.77,571.744 1576.73,571.412 1578.69,560.861 1580.65,559.035 1582.61,557.269 1584.57,556.469 1586.53,556.092 1588.49,553.013 1590.45,552.907 1592.41,552.892 1594.37,550.93 1596.33,550.206 1598.29,550.16 1600.25,549.602 1602.21,548.681 1604.17,548.515 1606.13,546.372 1608.09,541.437 1610.05,540.38 1612.01,539.988 1613.96,538.75 1615.92,538.644 1617.88,538.358 1619.84,538.312 1621.8,534.599 1623.76,534.207 1625.72,533.12 1627.68,533.105 1629.64,532.32 1631.6,530.358 1633.56,530.117 1635.52,528.743 1637.48,528.683 1639.44,528.441 1641.4,526.509 1643.36,524.562 1645.32,523.038 1647.28,522.812 1649.24,522.6 1651.2,522.404 1653.16,521.317 1655.12,520.804 1657.08,520.412 1659.04,518.963 1661,518.51 1662.96,518.344 1664.92,514.193 1666.88,512.865 1668.84,509.59 1670.8,505.862 1672.76,504.217 1674.72,503.296 1676.68,502.134 1678.64,501.923 1680.6,501.606 1682.56,500.172 1684.52,499.93 1686.48,499.191 1688.44,498.24 1690.4,498.179 1692.36,497.002 1694.32,494.451 1696.28,494.316 1698.24,492.353 1700.2,491.901 1702.16,491.508 1704.12,490.708 1706.08,490.135 1708.04,489.727 1710,489.712 1711.96,488.354 1713.92,487.765 1715.88,486.346 1717.84,486.165 1719.79,482.89 1721.75,480.837 1723.71,480.505 1725.67,478.528 1727.63,476.747 1729.59,475.751 1731.55,473.985 1733.51,473.879 1735.47,472.506 1737.43,471.796 1739.39,471.736 1741.35,469.472 1743.31,468.385 1745.27,467.993 1747.23,464.416 1749.19,461.775 1751.15,458.907 1753.11,458.65 1755.07,455.873 1757.03,454.183 1758.99,452.387 1760.95,451.556 1762.91,449.187 1764.87,448.779 1766.83,448.568 1768.79,445.172 1770.75,443.391 1772.71,442.984 1774.67,442.923 1776.63,441.142 1778.59,440.372 1780.55,440.342 1782.51,434.682 1784.47,432.765 1786.43,431.03 1788.39,430.818 1790.35,430.2 1792.31,429.083 1794.27,428.841 1796.23,428.253 1798.19,427.06 1800.15,426.124 1802.11,423.362 1804.07,422.578 1806.03,419.74 1807.99,419.695 1809.95,417.838 1811.91,417.084 1813.87,416.525 1815.83,415.544 1817.79,415.076 1819.75,413.476 1821.71,413.371 1823.67,412.51 1825.62,410.76 1827.58,410.684 1829.54,410.654 1831.5,409.16 1833.46,409.114 1835.42,406.292 1837.38,405.945 1839.34,405.371 1841.3,404.602 1843.26,404.586 1845.22,404.526 1847.18,402.126 1849.14,400.436 1851.1,399.44 1853.06,396.889 1855.02,395.712 1856.98,394.549 1858.94,393.267 1860.9,392.497 1862.86,388.271 1864.82,385.584 1866.78,382.46 1868.74,381.977 1870.7,381.403 1872.66,379.547 1874.62,378.641 1876.58,378.4 1878.54,377.871 1880.5,377.766 1882.46,377.328 1884.42,376.468 1886.38,375.049 1888.34,374.958 1890.3,374.46 1892.26,373.479 1894.22,370.31 1896.18,368.046 1898.14,367.216 1900.1,365.555 1902.06,363.789 1904.02,363.14 1905.98,363.05 1907.94,362.099 1909.9,361.254 1911.86,359.775 1913.82,359.488 1915.78,358.869 1917.74,353.813 1919.7,352.892 1921.66,351.926 1923.62,351.624 1925.58,351.579 1927.54,351.141 1929.49,349.677 1931.45,347.776 1933.41,347.157 1935.37,345.421 1937.33,343.912 1939.29,342.991 1941.25,342.297 1943.21,342.116 1945.17,341.663 1947.13,337.678 1949.09,335.52 1951.05,333.694 1953.01,333.135 1954.97,332.29 1956.93,330.177 1958.89,327.958 1960.85,327.204 1962.81,326.826 1964.77,326.449 1966.73,326.132 1968.69,326.072 1970.65,325.981 1972.61,324.2 1974.57,324.019 1976.53,320.502 1978.49,315.929 1980.45,315.793 1982.41,313.922 1984.37,310.48 1986.33,310.254 1988.29,309.831 1990.25,308.08 1992.21,306.752 1994.17,306.043 1996.13,304.081 1998.09,304.02 2000.05,302.405 2002.01,300.941 2003.97,300.458 2005.93,298.753 2007.89,297.002 2009.85,296.64 2011.81,293.923 2013.77,293.666 2015.73,290.557 2017.69,290.089 2019.65,289.425 2021.61,288.067 2023.57,287.282 2025.53,286.905 2027.49,283.78 2029.45,281.079 2031.41,280.777 2033.37,278.966 2035.32,278.286 2037.28,278.271 2039.24,278.196 2041.2,276.596 2043.16,275.087 2045.12,273.019 2047.08,272.128 2049.04,270.695 2051,270.197 2052.96,270.076 2054.92,264.688 2056.88,264.446 2058.84,264.114 2060.8,261.654 2062.76,261.533 2064.72,260.326 2066.68,258.786 2068.64,258.62 2070.6,256.673 2072.56,254.605 2074.52,254.168 2076.48,252.236 2078.44,252.221 2080.4,251.919 2082.36,251.541 2084.32,251.073 2086.28,250.153 2088.24,248.84 2090.2,247.844 2092.16,246.968 2094.12,246.078 2096.08,243.617 2098.04,239.346 2100,236.675 2101.96,234.833 2103.92,233.716 2105.88,232.086 2107.84,229.732 2109.8,226.668 2111.76,225.204 2113.72,223.302 2115.68,222.502 2117.64,219.166 2119.6,219.121 2121.56,217.416 2123.52,215.786 2125.48,215.046 2127.44,214.986 2129.4,210.035 2131.36,208.858 2133.32,207.665 2135.28,207.167 2137.24,206.398 2139.2,205.266 2141.15,203.922 2143.11,203.273 2145.07,202.594 2147.03,201.039 2148.99,198.896 2150.95,198.775 2152.91,198.323 2154.87,196.391 2156.83,195.213 2158.79,194.912 2160.75,194.549 2162.71,194.383 2164.67,193.689 2166.63,188.572 2168.59,188.044 2170.55,186.912 2172.51,179.698 2174.47,174.415 2176.43,171.064 2178.39,169.917 2180.35,169.057 2182.31,164.589 2184.27,162.144 2186.23,161.103 2188.19,160.107 2190.15,159.02 2192.11,158.039 2194.07,157.435 2196.03,153.918 2197.99,149.058 2199.95,148.062 2201.91,147.926 2203.87,147.67 2205.83,143.61 2207.79,142.916 2209.75,142.704 2211.71,141.436 2213.67,136.365 2215.63,136.184 2217.59,135.595 2219.55,135.505 2221.51,134.403 2223.47,133.422 2225.43,132.697 2227.39,129.95 2229.35,129.256 2231.31,128.758 2233.27,124.351 2235.23,123.008 2237.19,121.498 2239.15,121.272 2241.11,120.351 2243.07,119.657 2245.02,119.461 2246.98,119.385 2248.94,118.374 2250.9,117.74 2252.86,112.971 2254.82,112.82 2256.78,111.899 2258.74,111.295 2260.7,110.903 2262.66,108.397 2264.62,107.235 2266.58,107.114 2268.54,105.907 2270.5,105.635 2272.46,104.971 2274.42,103.643 2276.38,103.522 2278.34,103.492 2280.3,96.4436 2282.26,96.4134 2284.22,94.0437 2286.18,93.8023 2288.14,90.3912 2290.1,88.5951 2292.06,88.3687 2294.02,87.9763 "/>
<polyline clip-path="url(#clip372)" style="stroke:#e26f46; stroke-linecap:round; stroke-linejoin:round; stroke-width:4; stroke-opacity:1; fill:none" points="336.167,1445.52 338.126,1442.12 340.086,1439.98 342.046,1436.72 344.006,1435.45 345.966,1432.39 347.925,1431.33 349.885,1430.28 351.845,1426.49 353.805,1425.34 355.765,1424.59 357.724,1423.89 359.684,1423.85 361.644,1419.89 363.604,1418.55 365.564,1417.61 367.524,1417.61 369.483,1417.61 371.443,1417.61 373.403,1417.61 375.363,1417.61 377.323,1417.61 379.282,1417.61 381.242,1417.61 383.202,1415.2 385.162,1414.29 387.122,1412.69 389.081,1412.63 391.041,1403.05 393.001,1400.8 394.961,1398.79 396.921,1398.25 398.881,1395.05 400.84,1393.86 402.8,1393.39 404.76,1392.72 406.72,1387.5 408.68,1387.06 410.639,1385.36 412.599,1383.62 414.559,1382.46 416.519,1379.59 418.479,1379.44 420.439,1378.23 422.398,1377.22 424.358,1376.66 426.318,1376.45 428.278,1371.91 430.238,1371.91 432.197,1371.91 434.157,1371.91 436.117,1371.91 438.077,1371.91 440.037,1371.91 441.996,1371.91 443.956,1371.91 445.916,1371.91 447.876,1369.9 449.836,1364.27 451.796,1363.79 453.755,1363.31 455.715,1363.11 457.675,1361.63 459.635,1361.63 461.595,1361.63 463.554,1361.63 465.514,1361.63 467.474,1361.63 469.434,1361.63 471.394,1361.63 473.353,1361.63 475.313,1361.63 477.273,1361.63 479.233,1361.63 481.193,1361.63 483.153,1361.63 485.112,1361.63 487.072,1361.63 489.032,1360.74 490.992,1357.45 492.952,1355.9 494.911,1351.9 496.871,1345.15 498.831,1343.28 500.791,1341.8 502.751,1337.36 504.711,1335.84 506.67,1333.83 508.63,1327.14 510.59,1324.11 512.55,1321.91 514.51,1320.83 516.469,1319.1 518.429,1316.58 520.389,1316.58 522.349,1316.58 524.309,1316.58 526.268,1316.58 528.228,1316.58 530.188,1316.58 532.148,1316.58 534.108,1316.58 536.068,1316.58 538.027,1316.58 539.987,1316.58 541.947,1314.95 543.907,1314.84 545.867,1314.78 547.826,1311.58 549.786,1311.58 551.746,1311.58 553.706,1311.58 555.666,1311.58 557.625,1311.58 559.585,1311.58 561.545,1311.58 563.505,1311.58 565.465,1311.58 567.425,1311.58 569.384,1311.58 571.344,1311.58 573.304,1311.58 575.264,1303.98 577.224,1299.99 579.183,1299.72 581.143,1298.51 583.103,1298.22 585.063,1297.35 587.023,1294.69 588.982,1293.32 590.942,1289.77 592.902,1289.65 594.862,1289.64 596.822,1289.3 598.782,1287.37 600.741,1282.68 602.701,1278.82 604.661,1276.08 606.621,1274.77 608.581,1270.57 610.54,1264.69 612.5,1259.99 614.46,1255.92 616.42,1255.1 618.38,1254.77 620.34,1253.88 622.299,1252.1 624.259,1243.69 626.219,1240.75 628.179,1239.35 630.139,1233.4 632.098,1230.41 634.058,1230.41 636.018,1230.41 637.978,1230.41 639.938,1230.41 641.897,1230.41 643.857,1230.41 645.817,1230.41 647.777,1230.41 649.737,1230.41 651.697,1230.41 653.656,1230.41 655.616,1230.41 657.576,1230.41 659.536,1230.41 661.496,1230.41 663.455,1230.41 665.415,1230.41 667.375,1229.04 669.335,1226.38 671.295,1225.99 673.254,1223.76 675.214,1220.59 677.174,1219.92 679.134,1219.03 681.094,1219.03 683.054,1219.03 685.013,1219.03 686.973,1219.03 688.933,1219.03 690.893,1219.03 692.853,1219.03 694.812,1219.03 696.772,1219.03 698.732,1219.03 700.692,1216.39 702.652,1210.9 704.611,1208.95 706.571,1206.28 708.531,1202.31 710.491,1201.64 712.451,1201.64 714.411,1201.64 716.37,1201.64 718.33,1201.64 720.29,1201.64 722.25,1201.64 724.21,1201.64 726.169,1201.64 728.129,1201.64 730.089,1201.64 732.049,1201.64 734.009,1201.64 735.969,1201.64 737.928,1201.64 739.888,1201.64 741.848,1201.64 743.808,1199.79 745.768,1196.01 747.727,1191.98 749.687,1186.87 751.647,1186.13 753.607,1181.93 755.567,1181.52 757.526,1179.53 759.486,1179.53 761.446,1179.53 763.406,1179.53 765.366,1179.53 767.326,1179.53 769.285,1179.53 771.245,1179.53 773.205,1179.53 775.165,1179.53 777.125,1179.53 779.084,1179.53 781.044,1179.53 783.004,1179.53 784.964,1179.53 786.924,1179.53 788.883,1179.53 790.843,1179.53 792.803,1179.53 794.763,1179.53 796.723,1179.14 798.683,1178.4 800.642,1178.05 802.602,1177.37 804.562,1173.96 806.522,1170.85 808.482,1161.45 810.441,1160.14 812.401,1159.93 814.361,1158.02 816.321,1156.68 818.281,1156.47 820.24,1151.4 822.2,1149.8 824.16,1148.86 826.12,1138.87 828.08,1138.87 830.04,1138.87 831.999,1138.87 833.959,1138.87 835.919,1138.87 837.879,1138.87 839.839,1138.87 841.798,1138.87 843.758,1138.87 845.718,1138.87 847.678,1138.87 849.638,1138.87 851.598,1138.87 853.557,1138.87 855.517,1138.87 857.477,1138.34 859.437,1134.75 861.397,1132.7 863.356,1132.53 865.316,1131.87 867.276,1131.38 869.236,1129.45 871.196,1127.94 873.155,1127.61 875.115,1125.85 877.075,1124.89 879.035,1120.88 880.995,1120.17 882.955,1120.14 884.914,1119.76 886.874,1114.09 888.834,1110.1 890.794,1107.22 892.754,1106.42 894.713,1101.45 896.673,1098.5 898.633,1098.36 900.593,1093.05 902.553,1091.87 904.512,1089.79 906.472,1088.11 908.432,1087.93 910.392,1086.36 912.352,1084.19 914.312,1083.54 916.271,1073.94 918.231,1070.62 920.191,1065.31 922.151,1065.31 924.111,1065.31 926.07,1065.31 928.03,1065.31 929.99,1065.31 931.95,1065.31 933.91,1065.31 935.869,1065.31 937.829,1065.31 939.789,1065.31 941.749,1065.31 943.709,1065.31 945.669,1065.31 947.628,1065.31 949.588,1065.31 951.548,1065.31 953.508,1065.31 955.468,1065.14 957.427,1063 959.387,1058.94 961.347,1056.16 963.307,1050.09 965.267,1048.98 967.227,1048.58 969.186,1048.46 971.146,1047.29 973.106,1047.01 975.066,1044.46 977.026,1044.27 978.985,1041.88 980.945,1039.45 982.905,1039.45 984.865,1039.45 986.825,1039.45 988.784,1039.45 990.744,1039.45 992.704,1039.45 994.664,1039.45 996.624,1039.45 998.584,1039.45 1000.54,1038.43 1002.5,1036.98 1004.46,1036.24 1006.42,1034.29 1008.38,1033.17 1010.34,1029.84 1012.3,1026.88 1014.26,1025.34 1016.22,1022.67 1018.18,1020.93 1020.14,1020.93 1022.1,1020.93 1024.06,1020.93 1026.02,1020.93 1027.98,1020.93 1029.94,1020.93 1031.9,1020.93 1033.86,1019.3 1035.82,1019.24 1037.78,1017.9 1039.74,1017.52 1041.7,1017.02 1043.66,1013.78 1045.62,1012.18 1047.58,1012.12 1049.54,1010.87 1051.5,1010.14 1053.46,1009.27 1055.42,1007.61 1057.38,1007.44 1059.34,1003.55 1061.3,1002.02 1063.26,1000.72 1065.22,998.957 1067.18,997.463 1069.14,996.708 1071.1,995.908 1073.06,994.972 1075.02,994.414 1076.98,990.354 1078.94,990.127 1080.9,987.29 1082.86,987.29 1084.82,987.29 1086.78,987.29 1088.73,987.29 1090.69,987.29 1092.65,981.615 1094.61,979.139 1096.57,974.687 1098.53,971.94 1100.49,969.072 1102.45,965.329 1104.41,964.876 1106.37,962.929 1108.33,958.19 1110.29,956.983 1112.25,953.934 1114.21,952.334 1116.17,951.247 1118.13,947.881 1120.09,947.7 1122.05,943.67 1124.01,942.508 1125.97,941.195 1127.93,939.973 1129.89,938.146 1131.85,937.935 1133.81,937.905 1135.77,936.063 1137.73,934.947 1139.69,934.947 1141.65,934.947 1143.61,934.947 1145.57,934.947 1147.53,934.947 1149.49,934.947 1151.45,934.947 1153.41,934.947 1155.37,932.954 1157.33,932.245 1159.29,926.087 1161.25,921.121 1163.21,919.733 1165.17,918.721 1167.13,917.076 1169.09,916.91 1171.05,915.265 1173.01,913.892 1174.97,908.669 1176.93,901.394 1178.89,899.04 1180.85,895.629 1182.81,893.35 1184.77,890.663 1186.73,889.833 1188.69,889.486 1190.65,886.648 1192.61,886.392 1194.56,885.486 1196.52,884.731 1198.48,884.445 1200.44,880.022 1202.4,878.513 1204.36,878.513 1206.32,878.513 1208.28,878.513 1210.24,878.513 1212.2,878.513 1214.16,878.513 1216.12,878.513 1218.08,878.513 1220.04,878.513 1222,878.513 1223.96,878.513 1225.92,878.513 1227.88,876.098 1229.84,873.94 1231.8,872.385 1233.76,867.857 1235.72,867.661 1237.68,866.952 1239.64,863.767 1241.6,859.45 1243.56,858.379 1245.52,855.27 1247.48,854.907 1249.44,853.805 1251.4,853.141 1253.36,850.923 1255.32,849.761 1257.28,845.927 1259.24,845.429 1261.2,842.259 1263.16,840.418 1265.12,838.878 1267.08,838.682 1269.04,836.569 1271,835.86 1272.96,835.603 1274.92,835.12 1276.88,835.12 1278.84,835.12 1280.8,835.12 1282.76,835.12 1284.72,835.12 1286.68,829.053 1288.64,828.041 1290.6,827.392 1292.56,823.332 1294.52,821.702 1296.48,821.566 1298.43,817.537 1300.39,817.099 1302.35,814.94 1304.31,814.729 1306.27,813.975 1308.23,811.786 1310.19,809.869 1312.15,806.383 1314.11,805.175 1316.07,803.802 1318.03,802.851 1319.99,795.999 1321.95,794.972 1323.91,794.036 1325.87,791.486 1327.83,785.72 1329.79,785.524 1331.75,777.751 1333.71,776.106 1335.67,775.2 1337.63,773.162 1339.59,773.072 1341.55,770.37 1343.51,765.706 1345.47,764.167 1347.43,762.778 1349.39,755.247 1351.35,752.923 1353.31,751.685 1355.27,750.01 1357.23,748.681 1359.19,747.429 1361.15,746.961 1363.11,746.961 1365.07,746.961 1367.03,745.542 1368.99,745.225 1370.95,744.184 1372.91,738.78 1374.87,736.29 1376.83,733.739 1378.79,728.139 1380.75,727.747 1382.71,725.136 1384.67,724.819 1386.63,724.185 1388.59,723.234 1390.55,720.216 1392.51,719.567 1394.47,718.797 1396.43,718.797 1398.39,718.797 1400.35,718.797 1402.31,715.205 1404.26,712.941 1406.22,711.597 1408.18,708.05 1410.14,707.537 1412.1,706.33 1414.06,705.877 1416.02,705.394 1417.98,704.337 1419.94,703.326 1421.9,703.205 1423.86,700.791 1425.82,697.727 1427.78,696.217 1429.74,695.01 1431.7,693.606 1433.66,690.195 1435.62,687.75 1437.58,684.58 1439.54,683.735 1441.5,678.785 1443.46,677.004 1445.42,675.072 1447.38,674.106 1449.34,673.095 1451.3,670.408 1453.26,670.363 1455.22,669.714 1457.18,667.57 1459.14,660.673 1461.1,658.997 1463.06,657.805 1465.02,654.364 1466.98,653.836 1468.94,653.504 1470.9,650.968 1472.86,647.783 1474.82,645.761 1476.78,645.217 1478.74,641.837 1480.7,640.614 1482.66,635.694 1484.62,634.999 1486.58,634.999 1488.54,634.999 1490.5,634.999 1492.46,634.999 1494.42,634.999 1496.38,634.999 1498.34,634.999 1500.3,634.999 1502.26,634.999 1504.22,634.999 1506.18,634.999 1508.14,634.999 1510.09,634.999 1512.05,634.999 1514.01,634.758 1515.97,630.803 1517.93,630.079 1519.89,629.158 1521.85,626.472 1523.81,620.887 1525.77,620.631 1527.73,617.567 1529.69,615.031 1531.65,611.016 1533.61,610.458 1535.57,610.458 1537.53,610.458 1539.49,610.458 1541.45,610.458 1543.41,610.458 1545.37,610.458 1547.33,610.458 1549.29,610.458 1551.25,610.458 1553.21,610.458 1555.17,610.458 1557.13,610.458 1559.09,610.458 1561.05,610.458 1563.01,610.458 1564.97,610.458 1566.93,610.458 1568.89,610.458 1570.85,607.439 1572.81,606.247 1574.77,606.02 1576.73,604.768 1578.69,602.247 1580.65,601.266 1582.61,600.451 1584.57,597.085 1586.53,591.621 1588.49,590.671 1590.45,589.976 1592.41,586.278 1594.37,585.448 1596.33,582.067 1598.29,577.947 1600.25,577.781 1602.21,577.373 1604.17,572.725 1606.13,569.072 1608.09,568.68 1610.05,567.155 1612.01,564.257 1613.96,564.227 1615.92,559.322 1617.88,558.447 1619.84,556.771 1621.8,549.572 1623.76,545.165 1625.72,540.999 1627.68,538.312 1629.64,538.312 1631.6,538.312 1633.56,538.312 1635.52,533.996 1637.48,532.894 1639.44,532.848 1641.4,529.905 1643.36,528.441 1645.32,527.053 1647.28,523.249 1649.24,522.283 1651.2,521.846 1653.16,521.695 1655.12,521.257 1657.08,520.397 1659.04,515.914 1661,514.661 1662.96,513.031 1664.92,512.865 1666.88,512.865 1668.84,512.865 1670.8,512.865 1672.76,512.865 1674.72,512.865 1676.68,512.865 1678.64,512.865 1680.6,512.865 1682.56,512.865 1684.52,511.809 1686.48,509.092 1688.44,507.93 1690.4,506.994 1692.36,503.915 1694.32,503.628 1696.28,501.651 1698.24,497.576 1700.2,497.47 1702.16,496.625 1704.12,493.787 1706.08,493.214 1708.04,492.851 1710,488.188 1711.96,487.312 1713.92,487.267 1715.88,486.769 1717.84,485.32 1719.79,485.003 1721.75,484.792 1723.71,482.03 1725.67,479.841 1727.63,479.675 1729.59,477.97 1731.55,477.698 1733.51,472.868 1735.47,471.585 1737.43,468.959 1739.39,465.669 1741.35,463.193 1743.31,461.216 1745.27,461.08 1747.23,459.058 1749.19,458.167 1751.15,456.733 1753.11,450.183 1755.07,449.866 1757.03,448.885 1758.99,448.477 1760.95,443.421 1762.91,442.561 1764.87,439.044 1766.83,437.369 1768.79,436.478 1770.75,433.535 1772.71,430.517 1774.67,429.143 1776.63,428.992 1778.59,428.917 1780.55,426.426 1782.51,426.381 1784.47,426.17 1786.43,423.936 1788.39,415.559 1790.35,415.499 1792.31,414.156 1794.27,412.963 1796.23,409.945 1798.19,409.582 1800.15,406.805 1802.11,399.274 1804.07,397.976 1806.03,395.364 1807.99,392.044 1809.95,389.237 1811.91,387.712 1813.87,382.762 1815.83,379.079 1817.79,378.068 1819.75,375.774 1821.71,374.46 1823.67,374.46 1825.62,374.46 1827.58,374.46 1829.54,374.46 1831.5,374.46 1833.46,374.46 1835.42,374.46 1837.38,374.46 1839.34,374.46 1841.3,374.46 1843.26,374.46 1845.22,374.46 1847.18,374.46 1849.14,374.46 1851.1,374.46 1853.06,374.46 1855.02,374.46 1856.98,373.751 1858.94,372.83 1860.9,366.355 1862.86,364.333 1864.82,361.375 1866.78,360.892 1868.74,359.956 1870.7,356.016 1872.66,354.99 1874.62,354.371 1876.58,350.417 1878.54,349.557 1880.5,347.911 1882.46,345.98 1884.42,344.666 1886.38,336.818 1888.34,336.712 1890.3,332.033 1892.26,330.766 1894.22,330.177 1896.18,330.177 1898.14,330.177 1900.1,330.177 1902.06,330.177 1904.02,330.177 1905.98,327.219 1907.94,325.86 1909.9,323.506 1911.86,323.189 1913.82,321.559 1915.78,318.072 1917.74,314.903 1919.7,314.465 1921.66,309.907 1923.62,309.454 1925.58,308.08 1927.54,308.08 1929.49,308.08 1931.45,308.08 1933.41,308.08 1935.37,307.794 1937.33,298.843 1939.29,297.847 1941.25,295.523 1943.21,293.923 1945.17,293.923 1947.13,293.923 1949.09,293.923 1951.05,293.923 1953.01,293.923 1954.97,293.923 1956.93,291.765 1958.89,289.169 1960.85,287.765 1962.81,285.682 1964.77,281.139 1966.73,280.822 1968.69,279.856 1970.65,278.966 1972.61,278.966 1974.57,278.966 1976.53,278.966 1978.49,278.966 1980.45,278.966 1982.41,278.966 1984.37,278.966 1986.33,278.966 1988.29,278.966 1990.25,278.966 1992.21,275.751 1994.17,271.042 1996.13,270.423 1998.09,267.178 2000.05,266.302 2002.01,265.82 2003.97,263.722 2005.93,262.952 2007.89,262.937 2009.85,262.001 2011.81,261.956 2013.77,261.639 2015.73,251.3 2017.69,249.413 2019.65,248.945 2021.61,248.84 2023.57,248.84 2025.53,245.172 2027.49,241.897 2029.45,241.293 2031.41,239.346 2033.37,237.127 2035.32,235.044 2037.28,228.434 2039.24,222.457 2041.2,219.197 2043.16,215.755 2045.12,215.167 2047.08,214.14 2049.04,210.035 2051,210.035 2052.96,210.035 2054.92,210.035 2056.88,210.035 2058.84,210.035 2060.8,210.035 2062.76,210.035 2064.72,210.035 2066.68,210.035 2068.64,210.035 2070.6,210.035 2072.56,210.035 2074.52,210.035 2076.48,210.035 2078.44,210.035 2080.4,210.035 2082.36,208.858 2084.32,208.858 2086.28,208.858 2088.24,208.858 2090.2,208.858 2092.16,208.858 2094.12,208.858 2096.08,208.858 2098.04,208.858 2100,208.858 2101.96,208.858 2103.92,208.858 2105.88,208.858 2107.84,208.858 2109.8,207.213 2111.76,202.594 2113.72,202.594 2115.68,202.594 2117.64,202.594 2119.6,202.594 2121.56,202.594 2123.52,202.594 2125.48,202.594 2127.44,202.594 2129.4,199.062 2131.36,195.349 2133.32,194.549 2135.28,194.549 2137.24,194.549 2139.2,194.549 2141.15,191.712 2143.11,190.52 2145.07,188.603 2147.03,185.343 2148.99,184.618 2150.95,183.743 2152.91,183.426 2154.87,183.35 2156.83,183.109 2158.79,181.63 2160.75,180.03 2162.71,178.566 2164.67,173.63 2166.63,171.804 2168.59,171.593 2170.55,159.956 2172.51,154.613 2174.47,151.232 2176.43,150.206 2178.39,149.874 2180.35,149.043 2182.31,148.062 2184.27,148.062 2186.23,148.062 2188.19,148.062 2190.15,148.062 2192.11,148.062 2194.07,148.062 2196.03,148.062 2197.99,148.062 2199.95,148.062 2201.91,148.062 2203.87,148.062 2205.83,148.062 2207.79,148.062 2209.75,147.745 2211.71,147.247 2213.67,144.651 2215.63,141.904 2217.59,141.195 2219.55,140.516 2221.51,140.425 2223.47,139.097 2225.43,137.391 2227.39,137.105 2229.35,136.048 2231.31,134.403 2233.27,134.403 2235.23,134.403 2237.19,132.622 2239.15,132.018 2241.11,130.977 2243.07,130.871 2245.02,127.762 2246.98,127.732 2248.94,121.347 2250.9,121.317 2252.86,117.74 2254.82,117.74 2256.78,117.74 2258.74,117.74 2260.7,117.74 2262.66,117.74 2264.62,117.74 2266.58,117.74 2268.54,117.74 2270.5,117.74 2272.46,117.74 2274.42,115.476 2276.38,114.737 2278.34,110.571 2280.3,107.643 2282.26,106.541 2284.22,104.7 2286.18,104.488 2288.14,95.2663 2290.1,94.3607 2292.06,90.5723 2294.02,88.6253 "/>
<path clip-path="url(#clip370)" d="M346.608 250.738 L1153.91 250.738 L1153.91 95.2176 L346.608 95.2176  Z" fill="#ffffff" fill-rule="evenodd" fill-opacity="1"/>
<polyline clip-path="url(#clip370)" style="stroke:#000000; stroke-linecap:round; stroke-linejoin:round; stroke-width:4; stroke-opacity:1; fill:none" points="346.608,250.738 1153.91,250.738 1153.91,95.2176 346.608,95.2176 346.608,250.738 "/>
<polyline clip-path="url(#clip370)" style="stroke:#009af9; stroke-linecap:round; stroke-linejoin:round; stroke-width:4; stroke-opacity:1; fill:none" points="369.668,147.058 508.023,147.058 "/>
<path clip-path="url(#clip370)" d="M531.082 128.319 L540.897 128.319 L540.897 131.629 L535.341 131.629 L535.341 167.277 L540.897 167.277 L540.897 170.588 L531.082 170.588 L531.082 128.319 Z" fill="#000000" fill-rule="nonzero" fill-opacity="1" /><path clip-path="url(#clip370)" d="M553.998 129.778 L553.998 142.625 L550.063 142.625 L550.063 129.778 L553.998 129.778 M562.748 129.778 L562.748 142.625 L558.813 142.625 L558.813 129.778 L562.748 129.778 Z" fill="#000000" fill-rule="nonzero" fill-opacity="1" /><path clip-path="url(#clip370)" d="M597.841 132.44 L597.841 137.37 Q595.48 135.171 592.794 134.083 Q590.132 132.995 587.123 132.995 Q581.197 132.995 578.049 136.629 Q574.901 140.24 574.901 147.092 Q574.901 153.921 578.049 157.555 Q581.197 161.166 587.123 161.166 Q590.132 161.166 592.794 160.078 Q595.48 158.99 597.841 156.791 L597.841 161.676 Q595.387 163.342 592.632 164.176 Q589.901 165.009 586.845 165.009 Q578.998 165.009 574.484 160.217 Q569.97 155.402 569.97 147.092 Q569.97 138.759 574.484 133.967 Q578.998 129.153 586.845 129.153 Q589.947 129.153 592.679 129.986 Q595.433 130.796 597.841 132.44 Z" fill="#000000" fill-rule="nonzero" fill-opacity="1" /><path clip-path="url(#clip370)" d="M614.924 141.398 Q611.498 141.398 609.507 144.083 Q607.517 146.745 607.517 151.398 Q607.517 156.051 609.484 158.736 Q611.475 161.398 614.924 161.398 Q618.327 161.398 620.317 158.713 Q622.308 156.027 622.308 151.398 Q622.308 146.791 620.317 144.106 Q618.327 141.398 614.924 141.398 M614.924 137.787 Q620.479 137.787 623.651 141.398 Q626.822 145.009 626.822 151.398 Q626.822 157.764 623.651 161.398 Q620.479 165.009 614.924 165.009 Q609.345 165.009 606.174 161.398 Q603.026 157.764 603.026 151.398 Q603.026 145.009 606.174 141.398 Q609.345 137.787 614.924 137.787 Z" fill="#000000" fill-rule="nonzero" fill-opacity="1" /><path clip-path="url(#clip370)" d="M633.882 128.319 L638.141 128.319 L638.141 164.338 L633.882 164.338 L633.882 128.319 Z" fill="#000000" fill-rule="nonzero" fill-opacity="1" /><path clip-path="url(#clip370)" d="M646.614 154.106 L646.614 138.412 L650.873 138.412 L650.873 153.944 Q650.873 157.625 652.308 159.476 Q653.743 161.305 656.613 161.305 Q660.063 161.305 662.053 159.106 Q664.067 156.907 664.067 153.111 L664.067 138.412 L668.326 138.412 L668.326 164.338 L664.067 164.338 L664.067 160.356 Q662.516 162.717 660.456 163.875 Q658.419 165.009 655.711 165.009 Q651.243 165.009 648.928 162.231 Q646.614 159.453 646.614 154.106 M657.331 137.787 L657.331 137.787 Z" fill="#000000" fill-rule="nonzero" fill-opacity="1" /><path clip-path="url(#clip370)" d="M697.285 143.389 Q698.882 140.518 701.104 139.153 Q703.326 137.787 706.335 137.787 Q710.386 137.787 712.585 140.634 Q714.784 143.458 714.784 148.689 L714.784 164.338 L710.502 164.338 L710.502 148.828 Q710.502 145.102 709.183 143.296 Q707.863 141.49 705.155 141.49 Q701.845 141.49 699.923 143.69 Q698.002 145.889 698.002 149.685 L698.002 164.338 L693.72 164.338 L693.72 148.828 Q693.72 145.078 692.4 143.296 Q691.081 141.49 688.326 141.49 Q685.062 141.49 683.141 143.713 Q681.22 145.912 681.22 149.685 L681.22 164.338 L676.937 164.338 L676.937 138.412 L681.22 138.412 L681.22 142.44 Q682.678 140.055 684.715 138.921 Q686.752 137.787 689.553 137.787 Q692.377 137.787 694.345 139.222 Q696.335 140.657 697.285 143.389 Z" fill="#000000" fill-rule="nonzero" fill-opacity="1" /><path clip-path="url(#clip370)" d="M744.831 148.689 L744.831 164.338 L740.571 164.338 L740.571 148.828 Q740.571 145.148 739.136 143.319 Q737.701 141.49 734.831 141.49 Q731.382 141.49 729.391 143.69 Q727.4 145.889 727.4 149.685 L727.4 164.338 L723.118 164.338 L723.118 138.412 L727.4 138.412 L727.4 142.44 Q728.928 140.102 730.988 138.944 Q733.071 137.787 735.78 137.787 Q740.247 137.787 742.539 140.565 Q744.831 143.319 744.831 148.689 Z" fill="#000000" fill-rule="nonzero" fill-opacity="1" /><path clip-path="url(#clip370)" d="M769.807 160.402 L777.446 160.402 L777.446 134.037 L769.136 135.703 L769.136 131.444 L777.4 129.778 L782.076 129.778 L782.076 160.402 L789.715 160.402 L789.715 164.338 L769.807 164.338 L769.807 160.402 Z" fill="#000000" fill-rule="nonzero" fill-opacity="1" /><path clip-path="url(#clip370)" d="M802.585 129.778 L802.585 142.625 L798.65 142.625 L798.65 129.778 L802.585 129.778 M811.335 129.778 L811.335 142.625 L807.4 142.625 L807.4 129.778 L811.335 129.778 Z" fill="#000000" fill-rule="nonzero" fill-opacity="1" /><path clip-path="url(#clip370)" d="M821.451 158.458 L826.335 158.458 L826.335 162.439 L822.539 169.847 L819.552 169.847 L821.451 162.439 L821.451 158.458 Z" fill="#000000" fill-rule="nonzero" fill-opacity="1" /><path clip-path="url(#clip370)" d="M854.529 129.778 L854.529 142.625 L850.594 142.625 L850.594 129.778 L854.529 129.778 M863.279 129.778 L863.279 142.625 L859.344 142.625 L859.344 129.778 L863.279 129.778 Z" fill="#000000" fill-rule="nonzero" fill-opacity="1" /><path clip-path="url(#clip370)" d="M898.371 132.44 L898.371 137.37 Q896.01 135.171 893.325 134.083 Q890.663 132.995 887.654 132.995 Q881.728 132.995 878.58 136.629 Q875.432 140.24 875.432 147.092 Q875.432 153.921 878.58 157.555 Q881.728 161.166 887.654 161.166 Q890.663 161.166 893.325 160.078 Q896.01 158.99 898.371 156.791 L898.371 161.676 Q895.918 163.342 893.163 164.176 Q890.432 165.009 887.376 165.009 Q879.529 165.009 875.015 160.217 Q870.501 155.402 870.501 147.092 Q870.501 138.759 875.015 133.967 Q879.529 129.153 887.376 129.153 Q890.478 129.153 893.209 129.986 Q895.964 130.796 898.371 132.44 Z" fill="#000000" fill-rule="nonzero" fill-opacity="1" /><path clip-path="url(#clip370)" d="M915.455 141.398 Q912.029 141.398 910.038 144.083 Q908.047 146.745 908.047 151.398 Q908.047 156.051 910.015 158.736 Q912.006 161.398 915.455 161.398 Q918.857 161.398 920.848 158.713 Q922.839 156.027 922.839 151.398 Q922.839 146.791 920.848 144.106 Q918.857 141.398 915.455 141.398 M915.455 137.787 Q921.01 137.787 924.181 141.398 Q927.353 145.009 927.353 151.398 Q927.353 157.764 924.181 161.398 Q921.01 165.009 915.455 165.009 Q909.876 165.009 906.705 161.398 Q903.557 157.764 903.557 151.398 Q903.557 145.009 906.705 141.398 Q909.876 137.787 915.455 137.787 Z" fill="#000000" fill-rule="nonzero" fill-opacity="1" /><path clip-path="url(#clip370)" d="M934.413 128.319 L938.672 128.319 L938.672 164.338 L934.413 164.338 L934.413 128.319 Z" fill="#000000" fill-rule="nonzero" fill-opacity="1" /><path clip-path="url(#clip370)" d="M947.144 154.106 L947.144 138.412 L951.404 138.412 L951.404 153.944 Q951.404 157.625 952.839 159.476 Q954.274 161.305 957.144 161.305 Q960.593 161.305 962.584 159.106 Q964.598 156.907 964.598 153.111 L964.598 138.412 L968.857 138.412 L968.857 164.338 L964.598 164.338 L964.598 160.356 Q963.047 162.717 960.987 163.875 Q958.95 165.009 956.242 165.009 Q951.774 165.009 949.459 162.231 Q947.144 159.453 947.144 154.106 M957.862 137.787 L957.862 137.787 Z" fill="#000000" fill-rule="nonzero" fill-opacity="1" /><path clip-path="url(#clip370)" d="M997.815 143.389 Q999.413 140.518 1001.63 139.153 Q1003.86 137.787 1006.87 137.787 Q1010.92 137.787 1013.12 140.634 Q1015.32 143.458 1015.32 148.689 L1015.32 164.338 L1011.03 164.338 L1011.03 148.828 Q1011.03 145.102 1009.71 143.296 Q1008.39 141.49 1005.69 141.49 Q1002.38 141.49 1000.45 143.69 Q998.533 145.889 998.533 149.685 L998.533 164.338 L994.251 164.338 L994.251 148.828 Q994.251 145.078 992.931 143.296 Q991.612 141.49 988.857 141.49 Q985.593 141.49 983.672 143.713 Q981.751 145.912 981.751 149.685 L981.751 164.338 L977.468 164.338 L977.468 138.412 L981.751 138.412 L981.751 142.44 Q983.209 140.055 985.246 138.921 Q987.283 137.787 990.084 137.787 Q992.908 137.787 994.876 139.222 Q996.866 140.657 997.815 143.389 Z" fill="#000000" fill-rule="nonzero" fill-opacity="1" /><path clip-path="url(#clip370)" d="M1045.36 148.689 L1045.36 164.338 L1041.1 164.338 L1041.1 148.828 Q1041.1 145.148 1039.67 143.319 Q1038.23 141.49 1035.36 141.49 Q1031.91 141.49 1029.92 143.69 Q1027.93 145.889 1027.93 149.685 L1027.93 164.338 L1023.65 164.338 L1023.65 138.412 L1027.93 138.412 L1027.93 142.44 Q1029.46 140.102 1031.52 138.944 Q1033.6 137.787 1036.31 137.787 Q1040.78 137.787 1043.07 140.565 Q1045.36 143.319 1045.36 148.689 Z" fill="#000000" fill-rule="nonzero" fill-opacity="1" /><path clip-path="url(#clip370)" d="M1073.56 160.402 L1089.88 160.402 L1089.88 164.338 L1067.93 164.338 L1067.93 160.402 Q1070.59 157.648 1075.18 153.018 Q1079.78 148.365 1080.96 147.023 Q1083.21 144.5 1084.09 142.764 Q1084.99 141.004 1084.99 139.315 Q1084.99 136.56 1083.05 134.824 Q1081.13 133.088 1078.02 133.088 Q1075.82 133.088 1073.37 133.852 Q1070.94 134.615 1068.16 136.166 L1068.16 131.444 Q1070.99 130.31 1073.44 129.731 Q1075.89 129.153 1077.93 129.153 Q1083.3 129.153 1086.5 131.838 Q1089.69 134.523 1089.69 139.014 Q1089.69 141.143 1088.88 143.065 Q1088.09 144.963 1085.99 147.555 Q1085.41 148.227 1082.31 151.444 Q1079.2 154.639 1073.56 160.402 Z" fill="#000000" fill-rule="nonzero" fill-opacity="1" /><path clip-path="url(#clip370)" d="M1103.12 129.778 L1103.12 142.625 L1099.18 142.625 L1099.18 129.778 L1103.12 129.778 M1111.87 129.778 L1111.87 142.625 L1107.93 142.625 L1107.93 129.778 L1111.87 129.778 Z" fill="#000000" fill-rule="nonzero" fill-opacity="1" /><path clip-path="url(#clip370)" d="M1130.85 128.319 L1130.85 170.588 L1121.03 170.588 L1121.03 167.277 L1126.56 167.277 L1126.56 131.629 L1121.03 131.629 L1121.03 128.319 L1130.85 128.319 Z" fill="#000000" fill-rule="nonzero" fill-opacity="1" /><polyline clip-path="url(#clip370)" style="stroke:#e26f46; stroke-linecap:round; stroke-linejoin:round; stroke-width:4; stroke-opacity:1; fill:none" points="369.668,198.898 508.023,198.898 "/>
<path clip-path="url(#clip370)" d="M531.082 180.159 L540.897 180.159 L540.897 183.469 L535.341 183.469 L535.341 219.117 L540.897 219.117 L540.897 222.428 L531.082 222.428 L531.082 180.159 Z" fill="#000000" fill-rule="nonzero" fill-opacity="1" /><path clip-path="url(#clip370)" d="M553.998 181.618 L553.998 194.465 L550.063 194.465 L550.063 181.618 L553.998 181.618 M562.748 181.618 L562.748 194.465 L558.813 194.465 L558.813 181.618 L562.748 181.618 Z" fill="#000000" fill-rule="nonzero" fill-opacity="1" /><path clip-path="url(#clip370)" d="M597.841 184.28 L597.841 189.21 Q595.48 187.011 592.794 185.923 Q590.132 184.835 587.123 184.835 Q581.197 184.835 578.049 188.469 Q574.901 192.08 574.901 198.932 Q574.901 205.761 578.049 209.395 Q581.197 213.006 587.123 213.006 Q590.132 213.006 592.794 211.918 Q595.48 210.83 597.841 208.631 L597.841 213.516 Q595.387 215.182 592.632 216.016 Q589.901 216.849 586.845 216.849 Q578.998 216.849 574.484 212.057 Q569.97 207.242 569.97 198.932 Q569.97 190.599 574.484 185.807 Q578.998 180.993 586.845 180.993 Q589.947 180.993 592.679 181.826 Q595.433 182.636 597.841 184.28 Z" fill="#000000" fill-rule="nonzero" fill-opacity="1" /><path clip-path="url(#clip370)" d="M614.924 193.238 Q611.498 193.238 609.507 195.923 Q607.517 198.585 607.517 203.238 Q607.517 207.891 609.484 210.576 Q611.475 213.238 614.924 213.238 Q618.327 213.238 620.317 210.553 Q622.308 207.867 622.308 203.238 Q622.308 198.631 620.317 195.946 Q618.327 193.238 614.924 193.238 M614.924 189.627 Q620.479 189.627 623.651 193.238 Q626.822 196.849 626.822 203.238 Q626.822 209.604 623.651 213.238 Q620.479 216.849 614.924 216.849 Q609.345 216.849 606.174 213.238 Q603.026 209.604 603.026 203.238 Q603.026 196.849 606.174 193.238 Q609.345 189.627 614.924 189.627 Z" fill="#000000" fill-rule="nonzero" fill-opacity="1" /><path clip-path="url(#clip370)" d="M633.882 180.159 L638.141 180.159 L638.141 216.178 L633.882 216.178 L633.882 180.159 Z" fill="#000000" fill-rule="nonzero" fill-opacity="1" /><path clip-path="url(#clip370)" d="M646.614 205.946 L646.614 190.252 L650.873 190.252 L650.873 205.784 Q650.873 209.465 652.308 211.316 Q653.743 213.145 656.613 213.145 Q660.063 213.145 662.053 210.946 Q664.067 208.747 664.067 204.951 L664.067 190.252 L668.326 190.252 L668.326 216.178 L664.067 216.178 L664.067 212.196 Q662.516 214.557 660.456 215.715 Q658.419 216.849 655.711 216.849 Q651.243 216.849 648.928 214.071 Q646.614 211.293 646.614 205.946 M657.331 189.627 L657.331 189.627 Z" fill="#000000" fill-rule="nonzero" fill-opacity="1" /><path clip-path="url(#clip370)" d="M697.285 195.229 Q698.882 192.358 701.104 190.993 Q703.326 189.627 706.335 189.627 Q710.386 189.627 712.585 192.474 Q714.784 195.298 714.784 200.529 L714.784 216.178 L710.502 216.178 L710.502 200.668 Q710.502 196.942 709.183 195.136 Q707.863 193.33 705.155 193.33 Q701.845 193.33 699.923 195.53 Q698.002 197.729 698.002 201.525 L698.002 216.178 L693.72 216.178 L693.72 200.668 Q693.72 196.918 692.4 195.136 Q691.081 193.33 688.326 193.33 Q685.062 193.33 683.141 195.553 Q681.22 197.752 681.22 201.525 L681.22 216.178 L676.937 216.178 L676.937 190.252 L681.22 190.252 L681.22 194.28 Q682.678 191.895 684.715 190.761 Q686.752 189.627 689.553 189.627 Q692.377 189.627 694.345 191.062 Q696.335 192.497 697.285 195.229 Z" fill="#000000" fill-rule="nonzero" fill-opacity="1" /><path clip-path="url(#clip370)" d="M744.831 200.529 L744.831 216.178 L740.571 216.178 L740.571 200.668 Q740.571 196.988 739.136 195.159 Q737.701 193.33 734.831 193.33 Q731.382 193.33 729.391 195.53 Q727.4 197.729 727.4 201.525 L727.4 216.178 L723.118 216.178 L723.118 190.252 L727.4 190.252 L727.4 194.28 Q728.928 191.942 730.988 190.784 Q733.071 189.627 735.78 189.627 Q740.247 189.627 742.539 192.405 Q744.831 195.159 744.831 200.529 Z" fill="#000000" fill-rule="nonzero" fill-opacity="1" /><path clip-path="url(#clip370)" d="M769.807 212.242 L777.446 212.242 L777.446 185.877 L769.136 187.543 L769.136 183.284 L777.4 181.618 L782.076 181.618 L782.076 212.242 L789.715 212.242 L789.715 216.178 L769.807 216.178 L769.807 212.242 Z" fill="#000000" fill-rule="nonzero" fill-opacity="1" /><path clip-path="url(#clip370)" d="M802.585 181.618 L802.585 194.465 L798.65 194.465 L798.65 181.618 L802.585 181.618 M811.335 181.618 L811.335 194.465 L807.4 194.465 L807.4 181.618 L811.335 181.618 Z" fill="#000000" fill-rule="nonzero" fill-opacity="1" /><path clip-path="url(#clip370)" d="M821.451 210.298 L826.335 210.298 L826.335 214.279 L822.539 221.687 L819.552 221.687 L821.451 214.279 L821.451 210.298 Z" fill="#000000" fill-rule="nonzero" fill-opacity="1" /><path clip-path="url(#clip370)" d="M854.529 181.618 L854.529 194.465 L850.594 194.465 L850.594 181.618 L854.529 181.618 M863.279 181.618 L863.279 194.465 L859.344 194.465 L859.344 181.618 L863.279 181.618 Z" fill="#000000" fill-rule="nonzero" fill-opacity="1" /><path clip-path="url(#clip370)" d="M898.371 184.28 L898.371 189.21 Q896.01 187.011 893.325 185.923 Q890.663 184.835 887.654 184.835 Q881.728 184.835 878.58 188.469 Q875.432 192.08 875.432 198.932 Q875.432 205.761 878.58 209.395 Q881.728 213.006 887.654 213.006 Q890.663 213.006 893.325 211.918 Q896.01 210.83 898.371 208.631 L898.371 213.516 Q895.918 215.182 893.163 216.016 Q890.432 216.849 887.376 216.849 Q879.529 216.849 875.015 212.057 Q870.501 207.242 870.501 198.932 Q870.501 190.599 875.015 185.807 Q879.529 180.993 887.376 180.993 Q890.478 180.993 893.209 181.826 Q895.964 182.636 898.371 184.28 Z" fill="#000000" fill-rule="nonzero" fill-opacity="1" /><path clip-path="url(#clip370)" d="M915.455 193.238 Q912.029 193.238 910.038 195.923 Q908.047 198.585 908.047 203.238 Q908.047 207.891 910.015 210.576 Q912.006 213.238 915.455 213.238 Q918.857 213.238 920.848 210.553 Q922.839 207.867 922.839 203.238 Q922.839 198.631 920.848 195.946 Q918.857 193.238 915.455 193.238 M915.455 189.627 Q921.01 189.627 924.181 193.238 Q927.353 196.849 927.353 203.238 Q927.353 209.604 924.181 213.238 Q921.01 216.849 915.455 216.849 Q909.876 216.849 906.705 213.238 Q903.557 209.604 903.557 203.238 Q903.557 196.849 906.705 193.238 Q909.876 189.627 915.455 189.627 Z" fill="#000000" fill-rule="nonzero" fill-opacity="1" /><path clip-path="url(#clip370)" d="M934.413 180.159 L938.672 180.159 L938.672 216.178 L934.413 216.178 L934.413 180.159 Z" fill="#000000" fill-rule="nonzero" fill-opacity="1" /><path clip-path="url(#clip370)" d="M947.144 205.946 L947.144 190.252 L951.404 190.252 L951.404 205.784 Q951.404 209.465 952.839 211.316 Q954.274 213.145 957.144 213.145 Q960.593 213.145 962.584 210.946 Q964.598 208.747 964.598 204.951 L964.598 190.252 L968.857 190.252 L968.857 216.178 L964.598 216.178 L964.598 212.196 Q963.047 214.557 960.987 215.715 Q958.95 216.849 956.242 216.849 Q951.774 216.849 949.459 214.071 Q947.144 211.293 947.144 205.946 M957.862 189.627 L957.862 189.627 Z" fill="#000000" fill-rule="nonzero" fill-opacity="1" /><path clip-path="url(#clip370)" d="M997.815 195.229 Q999.413 192.358 1001.63 190.993 Q1003.86 189.627 1006.87 189.627 Q1010.92 189.627 1013.12 192.474 Q1015.32 195.298 1015.32 200.529 L1015.32 216.178 L1011.03 216.178 L1011.03 200.668 Q1011.03 196.942 1009.71 195.136 Q1008.39 193.33 1005.69 193.33 Q1002.38 193.33 1000.45 195.53 Q998.533 197.729 998.533 201.525 L998.533 216.178 L994.251 216.178 L994.251 200.668 Q994.251 196.918 992.931 195.136 Q991.612 193.33 988.857 193.33 Q985.593 193.33 983.672 195.553 Q981.751 197.752 981.751 201.525 L981.751 216.178 L977.468 216.178 L977.468 190.252 L981.751 190.252 L981.751 194.28 Q983.209 191.895 985.246 190.761 Q987.283 189.627 990.084 189.627 Q992.908 189.627 994.876 191.062 Q996.866 192.497 997.815 195.229 Z" fill="#000000" fill-rule="nonzero" fill-opacity="1" /><path clip-path="url(#clip370)" d="M1045.36 200.529 L1045.36 216.178 L1041.1 216.178 L1041.1 200.668 Q1041.1 196.988 1039.67 195.159 Q1038.23 193.33 1035.36 193.33 Q1031.91 193.33 1029.92 195.53 Q1027.93 197.729 1027.93 201.525 L1027.93 216.178 L1023.65 216.178 L1023.65 190.252 L1027.93 190.252 L1027.93 194.28 Q1029.46 191.942 1031.52 190.784 Q1033.6 189.627 1036.31 189.627 Q1040.78 189.627 1043.07 192.405 Q1045.36 195.159 1045.36 200.529 Z" fill="#000000" fill-rule="nonzero" fill-opacity="1" /><path clip-path="url(#clip370)" d="M1073.56 212.242 L1089.88 212.242 L1089.88 216.178 L1067.93 216.178 L1067.93 212.242 Q1070.59 209.488 1075.18 204.858 Q1079.78 200.205 1080.96 198.863 Q1083.21 196.34 1084.09 194.604 Q1084.99 192.844 1084.99 191.155 Q1084.99 188.4 1083.05 186.664 Q1081.13 184.928 1078.02 184.928 Q1075.82 184.928 1073.37 185.692 Q1070.94 186.455 1068.16 188.006 L1068.16 183.284 Q1070.99 182.15 1073.44 181.571 Q1075.89 180.993 1077.93 180.993 Q1083.3 180.993 1086.5 183.678 Q1089.69 186.363 1089.69 190.854 Q1089.69 192.983 1088.88 194.905 Q1088.09 196.803 1085.99 199.395 Q1085.41 200.067 1082.31 203.284 Q1079.2 206.479 1073.56 212.242 Z" fill="#000000" fill-rule="nonzero" fill-opacity="1" /><path clip-path="url(#clip370)" d="M1103.12 181.618 L1103.12 194.465 L1099.18 194.465 L1099.18 181.618 L1103.12 181.618 M1111.87 181.618 L1111.87 194.465 L1107.93 194.465 L1107.93 181.618 L1111.87 181.618 Z" fill="#000000" fill-rule="nonzero" fill-opacity="1" /><path clip-path="url(#clip370)" d="M1130.85 180.159 L1130.85 222.428 L1121.03 222.428 L1121.03 219.117 L1126.56 219.117 L1126.56 183.469 L1121.03 183.469 L1121.03 180.159 L1130.85 180.159 Z" fill="#000000" fill-rule="nonzero" fill-opacity="1" /></svg>
