<?xml version="1.0" encoding="utf-8"?>
<svg xmlns="http://www.w3.org/2000/svg" xmlns:xlink="http://www.w3.org/1999/xlink" width="600" height="400" viewBox="0 0 2400 1600">
<defs>
  <clipPath id="clip050">
    <rect x="0" y="0" width="2400" height="1600"/>
  </clipPath>
</defs>
<path clip-path="url(#clip050)" d="M0 1600 L2400 1600 L2400 8.88178e-14 L0 8.88178e-14  Z" fill="#ffffff" fill-rule="evenodd" fill-opacity="1"/>
<defs>
  <clipPath id="clip051">
    <rect x="480" y="0" width="1681" height="1600"/>
  </clipPath>
</defs>
<path clip-path="url(#clip050)" d="M112.177 1486.45 L2352.76 1486.45 L2352.76 47.2441 L112.177 47.2441  Z" fill="#ffffff" fill-rule="evenodd" fill-opacity="1"/>
<defs>
  <clipPath id="clip052">
    <rect x="112" y="47" width="2242" height="1440"/>
  </clipPath>
</defs>
<polyline clip-path="url(#clip052)" style="stroke:#000000; stroke-linecap:round; stroke-linejoin:round; stroke-width:2; stroke-opacity:0.1; fill:none" points="175.59,1486.45 175.59,47.2441 "/>
<polyline clip-path="url(#clip052)" style="stroke:#000000; stroke-linecap:round; stroke-linejoin:round; stroke-width:2; stroke-opacity:0.1; fill:none" points="598.34,1486.45 598.34,47.2441 "/>
<polyline clip-path="url(#clip052)" style="stroke:#000000; stroke-linecap:round; stroke-linejoin:round; stroke-width:2; stroke-opacity:0.1; fill:none" points="1021.09,1486.45 1021.09,47.2441 "/>
<polyline clip-path="url(#clip052)" style="stroke:#000000; stroke-linecap:round; stroke-linejoin:round; stroke-width:2; stroke-opacity:0.1; fill:none" points="1443.84,1486.45 1443.84,47.2441 "/>
<polyline clip-path="url(#clip052)" style="stroke:#000000; stroke-linecap:round; stroke-linejoin:round; stroke-width:2; stroke-opacity:0.1; fill:none" points="1866.59,1486.45 1866.59,47.2441 "/>
<polyline clip-path="url(#clip052)" style="stroke:#000000; stroke-linecap:round; stroke-linejoin:round; stroke-width:2; stroke-opacity:0.1; fill:none" points="2289.34,1486.45 2289.34,47.2441 "/>
<polyline clip-path="url(#clip052)" style="stroke:#000000; stroke-linecap:round; stroke-linejoin:round; stroke-width:2; stroke-opacity:0.1; fill:none" points="112.177,1276 2352.76,1276 "/>
<polyline clip-path="url(#clip052)" style="stroke:#000000; stroke-linecap:round; stroke-linejoin:round; stroke-width:2; stroke-opacity:0.1; fill:none" points="112.177,936.563 2352.76,936.563 "/>
<polyline clip-path="url(#clip052)" style="stroke:#000000; stroke-linecap:round; stroke-linejoin:round; stroke-width:2; stroke-opacity:0.1; fill:none" points="112.177,597.129 2352.76,597.129 "/>
<polyline clip-path="url(#clip052)" style="stroke:#000000; stroke-linecap:round; stroke-linejoin:round; stroke-width:2; stroke-opacity:0.1; fill:none" points="112.177,257.694 2352.76,257.694 "/>
<polyline clip-path="url(#clip050)" style="stroke:#000000; stroke-linecap:round; stroke-linejoin:round; stroke-width:4; stroke-opacity:1; fill:none" points="112.177,1486.45 2352.76,1486.45 "/>
<polyline clip-path="url(#clip050)" style="stroke:#000000; stroke-linecap:round; stroke-linejoin:round; stroke-width:4; stroke-opacity:1; fill:none" points="175.59,1486.45 175.59,1467.55 "/>
<polyline clip-path="url(#clip050)" style="stroke:#000000; stroke-linecap:round; stroke-linejoin:round; stroke-width:4; stroke-opacity:1; fill:none" points="598.34,1486.45 598.34,1467.55 "/>
<polyline clip-path="url(#clip050)" style="stroke:#000000; stroke-linecap:round; stroke-linejoin:round; stroke-width:4; stroke-opacity:1; fill:none" points="1021.09,1486.45 1021.09,1467.55 "/>
<polyline clip-path="url(#clip050)" style="stroke:#000000; stroke-linecap:round; stroke-linejoin:round; stroke-width:4; stroke-opacity:1; fill:none" points="1443.84,1486.45 1443.84,1467.55 "/>
<polyline clip-path="url(#clip050)" style="stroke:#000000; stroke-linecap:round; stroke-linejoin:round; stroke-width:4; stroke-opacity:1; fill:none" points="1866.59,1486.45 1866.59,1467.55 "/>
<polyline clip-path="url(#clip050)" style="stroke:#000000; stroke-linecap:round; stroke-linejoin:round; stroke-width:4; stroke-opacity:1; fill:none" points="2289.34,1486.45 2289.34,1467.55 "/>
<path clip-path="url(#clip050)" d="M165.972 1544.91 L173.611 1544.91 L173.611 1518.55 L165.3 1520.21 L165.3 1515.95 L173.564 1514.29 L178.24 1514.29 L178.24 1544.91 L185.879 1544.91 L185.879 1548.85 L165.972 1548.85 L165.972 1544.91 Z" fill="#000000" fill-rule="nonzero" fill-opacity="1" /><path clip-path="url(#clip050)" d="M592.993 1544.91 L609.313 1544.91 L609.313 1548.85 L587.368 1548.85 L587.368 1544.91 Q590.03 1542.16 594.614 1537.53 Q599.22 1532.88 600.401 1531.53 Q602.646 1529.01 603.526 1527.27 Q604.428 1525.51 604.428 1523.82 Q604.428 1521.07 602.484 1519.33 Q600.563 1517.6 597.461 1517.6 Q595.262 1517.6 592.808 1518.36 Q590.378 1519.13 587.6 1520.68 L587.6 1515.95 Q590.424 1514.82 592.878 1514.24 Q595.331 1513.66 597.368 1513.66 Q602.739 1513.66 605.933 1516.35 Q609.127 1519.03 609.127 1523.52 Q609.127 1525.65 608.317 1527.57 Q607.53 1529.47 605.424 1532.07 Q604.845 1532.74 601.743 1535.95 Q598.641 1539.15 592.993 1544.91 Z" fill="#000000" fill-rule="nonzero" fill-opacity="1" /><path clip-path="url(#clip050)" d="M1025.34 1530.21 Q1028.7 1530.93 1030.57 1533.2 Q1032.47 1535.47 1032.47 1538.8 Q1032.47 1543.92 1028.95 1546.72 Q1025.43 1549.52 1018.95 1549.52 Q1016.77 1549.52 1014.46 1549.08 Q1012.17 1548.66 1009.71 1547.81 L1009.71 1543.29 Q1011.66 1544.43 1013.97 1545.01 Q1016.29 1545.58 1018.81 1545.58 Q1023.21 1545.58 1025.5 1543.85 Q1027.82 1542.11 1027.82 1538.8 Q1027.82 1535.75 1025.66 1534.03 Q1023.53 1532.3 1019.71 1532.3 L1015.69 1532.3 L1015.69 1528.45 L1019.9 1528.45 Q1023.35 1528.45 1025.18 1527.09 Q1027.01 1525.7 1027.01 1523.11 Q1027.01 1520.45 1025.11 1519.03 Q1023.23 1517.6 1019.71 1517.6 Q1017.79 1517.6 1015.59 1518.01 Q1013.39 1518.43 1010.76 1519.31 L1010.76 1515.14 Q1013.42 1514.4 1015.73 1514.03 Q1018.07 1513.66 1020.13 1513.66 Q1025.45 1513.66 1028.56 1516.09 Q1031.66 1518.5 1031.66 1522.62 Q1031.66 1525.49 1030.01 1527.48 Q1028.37 1529.45 1025.34 1530.21 Z" fill="#000000" fill-rule="nonzero" fill-opacity="1" /><path clip-path="url(#clip050)" d="M1446.85 1518.36 L1435.05 1536.81 L1446.85 1536.81 L1446.85 1518.36 M1445.62 1514.29 L1451.5 1514.29 L1451.5 1536.81 L1456.43 1536.81 L1456.43 1540.7 L1451.5 1540.7 L1451.5 1548.85 L1446.85 1548.85 L1446.85 1540.7 L1431.25 1540.7 L1431.25 1536.19 L1445.62 1514.29 Z" fill="#000000" fill-rule="nonzero" fill-opacity="1" /><path clip-path="url(#clip050)" d="M1856.87 1514.29 L1875.23 1514.29 L1875.23 1518.22 L1861.15 1518.22 L1861.15 1526.7 Q1862.17 1526.35 1863.19 1526.19 Q1864.21 1526 1865.23 1526 Q1871.01 1526 1874.39 1529.17 Q1877.77 1532.34 1877.77 1537.76 Q1877.77 1543.34 1874.3 1546.44 Q1870.83 1549.52 1864.51 1549.52 Q1862.33 1549.52 1860.06 1549.15 Q1857.82 1548.78 1855.41 1548.04 L1855.41 1543.34 Q1857.5 1544.47 1859.72 1545.03 Q1861.94 1545.58 1864.42 1545.58 Q1868.42 1545.58 1870.76 1543.48 Q1873.1 1541.37 1873.1 1537.76 Q1873.1 1534.15 1870.76 1532.04 Q1868.42 1529.94 1864.42 1529.94 Q1862.54 1529.94 1860.67 1530.35 Q1858.81 1530.77 1856.87 1531.65 L1856.87 1514.29 Z" fill="#000000" fill-rule="nonzero" fill-opacity="1" /><path clip-path="url(#clip050)" d="M2289.75 1529.7 Q2286.6 1529.7 2284.75 1531.86 Q2282.92 1534.01 2282.92 1537.76 Q2282.92 1541.49 2284.75 1543.66 Q2286.6 1545.82 2289.75 1545.82 Q2292.9 1545.82 2294.73 1543.66 Q2296.58 1541.49 2296.58 1537.76 Q2296.58 1534.01 2294.73 1531.86 Q2292.9 1529.7 2289.75 1529.7 M2299.03 1515.05 L2299.03 1519.31 Q2297.27 1518.48 2295.47 1518.04 Q2293.68 1517.6 2291.92 1517.6 Q2287.29 1517.6 2284.84 1520.72 Q2282.41 1523.85 2282.06 1530.17 Q2283.43 1528.15 2285.49 1527.09 Q2287.55 1526 2290.03 1526 Q2295.23 1526 2298.24 1529.17 Q2301.28 1532.32 2301.28 1537.76 Q2301.28 1543.08 2298.13 1546.3 Q2294.98 1549.52 2289.75 1549.52 Q2283.75 1549.52 2280.58 1544.94 Q2277.41 1540.33 2277.41 1531.6 Q2277.41 1523.41 2281.3 1518.55 Q2285.19 1513.66 2291.74 1513.66 Q2293.5 1513.66 2295.28 1514.01 Q2297.09 1514.36 2299.03 1515.05 Z" fill="#000000" fill-rule="nonzero" fill-opacity="1" /><polyline clip-path="url(#clip050)" style="stroke:#000000; stroke-linecap:round; stroke-linejoin:round; stroke-width:4; stroke-opacity:1; fill:none" points="112.177,1486.45 112.177,47.2441 "/>
<polyline clip-path="url(#clip050)" style="stroke:#000000; stroke-linecap:round; stroke-linejoin:round; stroke-width:4; stroke-opacity:1; fill:none" points="112.177,1276 131.075,1276 "/>
<polyline clip-path="url(#clip050)" style="stroke:#000000; stroke-linecap:round; stroke-linejoin:round; stroke-width:4; stroke-opacity:1; fill:none" points="112.177,936.563 131.075,936.563 "/>
<polyline clip-path="url(#clip050)" style="stroke:#000000; stroke-linecap:round; stroke-linejoin:round; stroke-width:4; stroke-opacity:1; fill:none" points="112.177,597.129 131.075,597.129 "/>
<polyline clip-path="url(#clip050)" style="stroke:#000000; stroke-linecap:round; stroke-linejoin:round; stroke-width:4; stroke-opacity:1; fill:none" points="112.177,257.694 131.075,257.694 "/>
<path clip-path="url(#clip050)" d="M59.8578 1289.34 L76.1772 1289.34 L76.1772 1293.28 L54.2328 1293.28 L54.2328 1289.34 Q56.8949 1286.59 61.4782 1281.96 Q66.0846 1277.31 67.2652 1275.96 Q69.5105 1273.44 70.3902 1271.7 Q71.2929 1269.95 71.2929 1268.26 Q71.2929 1265.5 69.3485 1263.76 Q67.4272 1262.03 64.3254 1262.03 Q62.1263 1262.03 59.6726 1262.79 Q57.2421 1263.56 54.4643 1265.11 L54.4643 1260.38 Q57.2884 1259.25 59.7421 1258.67 Q62.1958 1258.09 64.2328 1258.09 Q69.6031 1258.09 72.7976 1260.78 Q75.992 1263.46 75.992 1267.95 Q75.992 1270.08 75.1818 1272.01 Q74.3948 1273.9 72.2883 1276.5 Q71.7096 1277.17 68.6078 1280.38 Q65.5059 1283.58 59.8578 1289.34 Z" fill="#000000" fill-rule="nonzero" fill-opacity="1" /><path clip-path="url(#clip050)" d="M66.5939 923.357 L54.7884 941.806 L66.5939 941.806 L66.5939 923.357 M65.367 919.283 L71.2466 919.283 L71.2466 941.806 L76.1772 941.806 L76.1772 945.695 L71.2466 945.695 L71.2466 953.843 L66.5939 953.843 L66.5939 945.695 L50.9921 945.695 L50.9921 941.181 L65.367 919.283 Z" fill="#000000" fill-rule="nonzero" fill-opacity="1" /><path clip-path="url(#clip050)" d="M64.6495 595.265 Q61.5013 595.265 59.6495 597.418 Q57.8208 599.571 57.8208 603.321 Q57.8208 607.047 59.6495 609.223 Q61.5013 611.376 64.6495 611.376 Q67.7976 611.376 69.6263 609.223 Q71.4781 607.047 71.4781 603.321 Q71.4781 599.571 69.6263 597.418 Q67.7976 595.265 64.6495 595.265 M73.9318 580.612 L73.9318 584.872 Q72.1726 584.038 70.367 583.599 Q68.5846 583.159 66.8254 583.159 Q62.1958 583.159 59.7421 586.284 Q57.3115 589.409 56.9643 595.728 Q58.33 593.714 60.3902 592.649 Q62.4504 591.561 64.9272 591.561 Q70.1355 591.561 73.1448 594.733 Q76.1772 597.881 76.1772 603.321 Q76.1772 608.645 73.029 611.862 Q69.8809 615.08 64.6495 615.08 Q58.6541 615.08 55.4828 610.497 Q52.3116 605.89 52.3116 597.163 Q52.3116 588.969 56.2004 584.108 Q60.0893 579.224 66.6402 579.224 Q68.3994 579.224 70.1818 579.571 Q71.9874 579.918 73.9318 580.612 Z" fill="#000000" fill-rule="nonzero" fill-opacity="1" /><path clip-path="url(#clip050)" d="M64.3254 258.562 Q60.9921 258.562 59.0708 260.344 Q57.1726 262.127 57.1726 265.252 Q57.1726 268.377 59.0708 270.159 Q60.9921 271.941 64.3254 271.941 Q67.6587 271.941 69.58 270.159 Q71.5013 268.353 71.5013 265.252 Q71.5013 262.127 69.58 260.344 Q67.6819 258.562 64.3254 258.562 M59.6495 256.571 Q56.6402 255.83 54.9504 253.77 Q53.2838 251.71 53.2838 248.747 Q53.2838 244.603 56.2236 242.196 Q59.1865 239.789 64.3254 239.789 Q69.4874 239.789 72.4272 242.196 Q75.367 244.603 75.367 248.747 Q75.367 251.71 73.6772 253.77 Q72.0105 255.83 69.0244 256.571 Q72.404 257.358 74.279 259.65 Q76.1772 261.941 76.1772 265.252 Q76.1772 270.275 73.0985 272.96 Q70.0429 275.645 64.3254 275.645 Q58.6078 275.645 55.5291 272.96 Q52.4736 270.275 52.4736 265.252 Q52.4736 261.941 54.3717 259.65 Q56.2699 257.358 59.6495 256.571 M57.9365 249.187 Q57.9365 251.872 59.6032 253.377 Q61.293 254.881 64.3254 254.881 Q67.3346 254.881 69.0244 253.377 Q70.7374 251.872 70.7374 249.187 Q70.7374 246.502 69.0244 244.997 Q67.3346 243.492 64.3254 243.492 Q61.293 243.492 59.6032 244.997 Q57.9365 246.502 57.9365 249.187 Z" fill="#000000" fill-rule="nonzero" fill-opacity="1" /><polyline clip-path="url(#clip052)" style="stroke:#009af9; stroke-linecap:round; stroke-linejoin:round; stroke-width:4; stroke-opacity:1; fill:none" points="175.59,1445.72 598.34,1276 1021.09,1106.28 1443.84,1106.28 1866.59,1106.28 2289.34,936.563 "/>
<polyline clip-path="url(#clip052)" style="stroke:#e26f46; stroke-linecap:round; stroke-linejoin:round; stroke-width:4; stroke-opacity:1; fill:none" points="175.59,1106.28 598.34,1106.28 1021.09,1106.28 1443.84,936.563 1866.59,766.846 2289.34,87.9763 "/>
<path clip-path="url(#clip050)" d="M186.863 250.738 L1010.69 250.738 L1010.69 95.2176 L186.863 95.2176  Z" fill="#ffffff" fill-rule="evenodd" fill-opacity="1"/>
<polyline clip-path="url(#clip050)" style="stroke:#000000; stroke-linecap:round; stroke-linejoin:round; stroke-width:4; stroke-opacity:1; fill:none" points="186.863,250.738 1010.69,250.738 1010.69,95.2176 186.863,95.2176 186.863,250.738 "/>
<polyline clip-path="url(#clip050)" style="stroke:#009af9; stroke-linecap:round; stroke-linejoin:round; stroke-width:4; stroke-opacity:1; fill:none" points="211.758,147.058 361.13,147.058 "/>
<path clip-path="url(#clip050)" d="M386.026 128.319 L395.84 128.319 L395.84 131.629 L390.285 131.629 L390.285 167.277 L395.84 167.277 L395.84 170.588 L386.026 170.588 L386.026 128.319 Z" fill="#000000" fill-rule="nonzero" fill-opacity="1" /><path clip-path="url(#clip050)" d="M408.942 129.778 L408.942 142.625 L405.007 142.625 L405.007 129.778 L408.942 129.778 M417.692 129.778 L417.692 142.625 L413.757 142.625 L413.757 129.778 L417.692 129.778 Z" fill="#000000" fill-rule="nonzero" fill-opacity="1" /><path clip-path="url(#clip050)" d="M452.785 132.44 L452.785 137.37 Q450.423 135.171 447.738 134.083 Q445.076 132.995 442.067 132.995 Q436.141 132.995 432.993 136.629 Q429.845 140.24 429.845 147.092 Q429.845 153.921 432.993 157.555 Q436.141 161.166 442.067 161.166 Q445.076 161.166 447.738 160.078 Q450.423 158.99 452.785 156.791 L452.785 161.676 Q450.331 163.342 447.576 164.176 Q444.845 165.009 441.789 165.009 Q433.942 165.009 429.428 160.217 Q424.914 155.402 424.914 147.092 Q424.914 138.759 429.428 133.967 Q433.942 129.153 441.789 129.153 Q444.891 129.153 447.623 129.986 Q450.377 130.796 452.785 132.44 Z" fill="#000000" fill-rule="nonzero" fill-opacity="1" /><path clip-path="url(#clip050)" d="M469.868 141.398 Q466.442 141.398 464.451 144.083 Q462.46 146.745 462.46 151.398 Q462.46 156.051 464.428 158.736 Q466.419 161.398 469.868 161.398 Q473.271 161.398 475.261 158.713 Q477.252 156.027 477.252 151.398 Q477.252 146.791 475.261 144.106 Q473.271 141.398 469.868 141.398 M469.868 137.787 Q475.423 137.787 478.595 141.398 Q481.766 145.009 481.766 151.398 Q481.766 157.764 478.595 161.398 Q475.423 165.009 469.868 165.009 Q464.289 165.009 461.118 161.398 Q457.97 157.764 457.97 151.398 Q457.97 145.009 461.118 141.398 Q464.289 137.787 469.868 137.787 Z" fill="#000000" fill-rule="nonzero" fill-opacity="1" /><path clip-path="url(#clip050)" d="M488.826 128.319 L493.085 128.319 L493.085 164.338 L488.826 164.338 L488.826 128.319 Z" fill="#000000" fill-rule="nonzero" fill-opacity="1" /><path clip-path="url(#clip050)" d="M501.557 154.106 L501.557 138.412 L505.817 138.412 L505.817 153.944 Q505.817 157.625 507.252 159.476 Q508.687 161.305 511.557 161.305 Q515.006 161.305 516.997 159.106 Q519.011 156.907 519.011 153.111 L519.011 138.412 L523.27 138.412 L523.27 164.338 L519.011 164.338 L519.011 160.356 Q517.46 162.717 515.4 163.875 Q513.363 165.009 510.655 165.009 Q506.187 165.009 503.872 162.231 Q501.557 159.453 501.557 154.106 M512.275 137.787 L512.275 137.787 Z" fill="#000000" fill-rule="nonzero" fill-opacity="1" /><path clip-path="url(#clip050)" d="M552.229 143.389 Q553.826 140.518 556.048 139.153 Q558.27 137.787 561.279 137.787 Q565.33 137.787 567.529 140.634 Q569.728 143.458 569.728 148.689 L569.728 164.338 L565.446 164.338 L565.446 148.828 Q565.446 145.102 564.127 143.296 Q562.807 141.49 560.099 141.49 Q556.789 141.49 554.867 143.69 Q552.946 145.889 552.946 149.685 L552.946 164.338 L548.664 164.338 L548.664 148.828 Q548.664 145.078 547.344 143.296 Q546.025 141.49 543.27 141.49 Q540.006 141.49 538.085 143.713 Q536.164 145.912 536.164 149.685 L536.164 164.338 L531.881 164.338 L531.881 138.412 L536.164 138.412 L536.164 142.44 Q537.622 140.055 539.659 138.921 Q541.696 137.787 544.497 137.787 Q547.321 137.787 549.289 139.222 Q551.279 140.657 552.229 143.389 Z" fill="#000000" fill-rule="nonzero" fill-opacity="1" /><path clip-path="url(#clip050)" d="M599.775 148.689 L599.775 164.338 L595.515 164.338 L595.515 148.828 Q595.515 145.148 594.08 143.319 Q592.645 141.49 589.775 141.49 Q586.326 141.49 584.335 143.69 Q582.344 145.889 582.344 149.685 L582.344 164.338 L578.062 164.338 L578.062 138.412 L582.344 138.412 L582.344 142.44 Q583.872 140.102 585.932 138.944 Q588.015 137.787 590.724 137.787 Q595.191 137.787 597.483 140.565 Q599.775 143.319 599.775 148.689 Z" fill="#000000" fill-rule="nonzero" fill-opacity="1" /><path clip-path="url(#clip050)" d="M624.751 160.402 L632.39 160.402 L632.39 134.037 L624.08 135.703 L624.08 131.444 L632.344 129.778 L637.02 129.778 L637.02 160.402 L644.659 160.402 L644.659 164.338 L624.751 164.338 L624.751 160.402 Z" fill="#000000" fill-rule="nonzero" fill-opacity="1" /><path clip-path="url(#clip050)" d="M657.529 129.778 L657.529 142.625 L653.594 142.625 L653.594 129.778 L657.529 129.778 M666.279 129.778 L666.279 142.625 L662.344 142.625 L662.344 129.778 L666.279 129.778 Z" fill="#000000" fill-rule="nonzero" fill-opacity="1" /><path clip-path="url(#clip050)" d="M676.395 158.458 L681.279 158.458 L681.279 162.439 L677.482 169.847 L674.496 169.847 L676.395 162.439 L676.395 158.458 Z" fill="#000000" fill-rule="nonzero" fill-opacity="1" /><path clip-path="url(#clip050)" d="M709.473 129.778 L709.473 142.625 L705.538 142.625 L705.538 129.778 L709.473 129.778 M718.223 129.778 L718.223 142.625 L714.288 142.625 L714.288 129.778 L718.223 129.778 Z" fill="#000000" fill-rule="nonzero" fill-opacity="1" /><path clip-path="url(#clip050)" d="M753.315 132.44 L753.315 137.37 Q750.954 135.171 748.269 134.083 Q745.607 132.995 742.598 132.995 Q736.672 132.995 733.524 136.629 Q730.376 140.24 730.376 147.092 Q730.376 153.921 733.524 157.555 Q736.672 161.166 742.598 161.166 Q745.607 161.166 748.269 160.078 Q750.954 158.99 753.315 156.791 L753.315 161.676 Q750.862 163.342 748.107 164.176 Q745.376 165.009 742.32 165.009 Q734.473 165.009 729.959 160.217 Q725.445 155.402 725.445 147.092 Q725.445 138.759 729.959 133.967 Q734.473 129.153 742.32 129.153 Q745.422 129.153 748.153 129.986 Q750.908 130.796 753.315 132.44 Z" fill="#000000" fill-rule="nonzero" fill-opacity="1" /><path clip-path="url(#clip050)" d="M770.399 141.398 Q766.973 141.398 764.982 144.083 Q762.991 146.745 762.991 151.398 Q762.991 156.051 764.959 158.736 Q766.95 161.398 770.399 161.398 Q773.801 161.398 775.792 158.713 Q777.783 156.027 777.783 151.398 Q777.783 146.791 775.792 144.106 Q773.801 141.398 770.399 141.398 M770.399 137.787 Q775.954 137.787 779.125 141.398 Q782.297 145.009 782.297 151.398 Q782.297 157.764 779.125 161.398 Q775.954 165.009 770.399 165.009 Q764.82 165.009 761.649 161.398 Q758.501 157.764 758.501 151.398 Q758.501 145.009 761.649 141.398 Q764.82 137.787 770.399 137.787 Z" fill="#000000" fill-rule="nonzero" fill-opacity="1" /><path clip-path="url(#clip050)" d="M789.357 128.319 L793.616 128.319 L793.616 164.338 L789.357 164.338 L789.357 128.319 Z" fill="#000000" fill-rule="nonzero" fill-opacity="1" /><path clip-path="url(#clip050)" d="M802.088 154.106 L802.088 138.412 L806.348 138.412 L806.348 153.944 Q806.348 157.625 807.783 159.476 Q809.218 161.305 812.088 161.305 Q815.537 161.305 817.528 159.106 Q819.542 156.907 819.542 153.111 L819.542 138.412 L823.801 138.412 L823.801 164.338 L819.542 164.338 L819.542 160.356 Q817.991 162.717 815.931 163.875 Q813.894 165.009 811.185 165.009 Q806.718 165.009 804.403 162.231 Q802.088 159.453 802.088 154.106 M812.806 137.787 L812.806 137.787 Z" fill="#000000" fill-rule="nonzero" fill-opacity="1" /><path clip-path="url(#clip050)" d="M852.759 143.389 Q854.357 140.518 856.579 139.153 Q858.801 137.787 861.81 137.787 Q865.861 137.787 868.06 140.634 Q870.259 143.458 870.259 148.689 L870.259 164.338 L865.977 164.338 L865.977 148.828 Q865.977 145.102 864.657 143.296 Q863.338 141.49 860.63 141.49 Q857.319 141.49 855.398 143.69 Q853.477 145.889 853.477 149.685 L853.477 164.338 L849.195 164.338 L849.195 148.828 Q849.195 145.078 847.875 143.296 Q846.556 141.49 843.801 141.49 Q840.537 141.49 838.616 143.713 Q836.695 145.912 836.695 149.685 L836.695 164.338 L832.412 164.338 L832.412 138.412 L836.695 138.412 L836.695 142.44 Q838.153 140.055 840.19 138.921 Q842.227 137.787 845.028 137.787 Q847.852 137.787 849.819 139.222 Q851.81 140.657 852.759 143.389 Z" fill="#000000" fill-rule="nonzero" fill-opacity="1" /><path clip-path="url(#clip050)" d="M900.305 148.689 L900.305 164.338 L896.046 164.338 L896.046 148.828 Q896.046 145.148 894.611 143.319 Q893.176 141.49 890.305 141.49 Q886.856 141.49 884.866 143.69 Q882.875 145.889 882.875 149.685 L882.875 164.338 L878.592 164.338 L878.592 138.412 L882.875 138.412 L882.875 142.44 Q884.403 140.102 886.463 138.944 Q888.546 137.787 891.254 137.787 Q895.722 137.787 898.014 140.565 Q900.305 143.319 900.305 148.689 Z" fill="#000000" fill-rule="nonzero" fill-opacity="1" /><path clip-path="url(#clip050)" d="M928.5 160.402 L944.819 160.402 L944.819 164.338 L922.875 164.338 L922.875 160.402 Q925.537 157.648 930.12 153.018 Q934.726 148.365 935.907 147.023 Q938.152 144.5 939.032 142.764 Q939.935 141.004 939.935 139.315 Q939.935 136.56 937.99 134.824 Q936.069 133.088 932.967 133.088 Q930.768 133.088 928.314 133.852 Q925.884 134.615 923.106 136.166 L923.106 131.444 Q925.93 130.31 928.384 129.731 Q930.838 129.153 932.875 129.153 Q938.245 129.153 941.439 131.838 Q944.634 134.523 944.634 139.014 Q944.634 141.143 943.824 143.065 Q943.037 144.963 940.93 147.555 Q940.351 148.227 937.25 151.444 Q934.148 154.639 928.5 160.402 Z" fill="#000000" fill-rule="nonzero" fill-opacity="1" /><path clip-path="url(#clip050)" d="M958.06 129.778 L958.06 142.625 L954.124 142.625 L954.124 129.778 L958.06 129.778 M966.81 129.778 L966.81 142.625 L962.874 142.625 L962.874 129.778 L966.81 129.778 Z" fill="#000000" fill-rule="nonzero" fill-opacity="1" /><path clip-path="url(#clip050)" d="M985.791 128.319 L985.791 170.588 L975.976 170.588 L975.976 167.277 L981.509 167.277 L981.509 131.629 L975.976 131.629 L975.976 128.319 L985.791 128.319 Z" fill="#000000" fill-rule="nonzero" fill-opacity="1" /><polyline clip-path="url(#clip050)" style="stroke:#e26f46; stroke-linecap:round; stroke-linejoin:round; stroke-width:4; stroke-opacity:1; fill:none" points="211.758,198.898 361.13,198.898 "/>
<path clip-path="url(#clip050)" d="M386.026 180.159 L395.84 180.159 L395.84 183.469 L390.285 183.469 L390.285 219.117 L395.84 219.117 L395.84 222.428 L386.026 222.428 L386.026 180.159 Z" fill="#000000" fill-rule="nonzero" fill-opacity="1" /><path clip-path="url(#clip050)" d="M408.942 181.618 L408.942 194.465 L405.007 194.465 L405.007 181.618 L408.942 181.618 M417.692 181.618 L417.692 194.465 L413.757 194.465 L413.757 181.618 L417.692 181.618 Z" fill="#000000" fill-rule="nonzero" fill-opacity="1" /><path clip-path="url(#clip050)" d="M452.785 184.28 L452.785 189.21 Q450.423 187.011 447.738 185.923 Q445.076 184.835 442.067 184.835 Q436.141 184.835 432.993 188.469 Q429.845 192.08 429.845 198.932 Q429.845 205.761 432.993 209.395 Q436.141 213.006 442.067 213.006 Q445.076 213.006 447.738 211.918 Q450.423 210.83 452.785 208.631 L452.785 213.516 Q450.331 215.182 447.576 216.016 Q444.845 216.849 441.789 216.849 Q433.942 216.849 429.428 212.057 Q424.914 207.242 424.914 198.932 Q424.914 190.599 429.428 185.807 Q433.942 180.993 441.789 180.993 Q444.891 180.993 447.623 181.826 Q450.377 182.636 452.785 184.28 Z" fill="#000000" fill-rule="nonzero" fill-opacity="1" /><path clip-path="url(#clip050)" d="M469.868 193.238 Q466.442 193.238 464.451 195.923 Q462.46 198.585 462.46 203.238 Q462.46 207.891 464.428 210.576 Q466.419 213.238 469.868 213.238 Q473.271 213.238 475.261 210.553 Q477.252 207.867 477.252 203.238 Q477.252 198.631 475.261 195.946 Q473.271 193.238 469.868 193.238 M469.868 189.627 Q475.423 189.627 478.595 193.238 Q481.766 196.849 481.766 203.238 Q481.766 209.604 478.595 213.238 Q475.423 216.849 469.868 216.849 Q464.289 216.849 461.118 213.238 Q457.97 209.604 457.97 203.238 Q457.97 196.849 461.118 193.238 Q464.289 189.627 469.868 189.627 Z" fill="#000000" fill-rule="nonzero" fill-opacity="1" /><path clip-path="url(#clip050)" d="M488.826 180.159 L493.085 180.159 L493.085 216.178 L488.826 216.178 L488.826 180.159 Z" fill="#000000" fill-rule="nonzero" fill-opacity="1" /><path clip-path="url(#clip050)" d="M501.557 205.946 L501.557 190.252 L505.817 190.252 L505.817 205.784 Q505.817 209.465 507.252 211.316 Q508.687 213.145 511.557 213.145 Q515.006 213.145 516.997 210.946 Q519.011 208.747 519.011 204.951 L519.011 190.252 L523.27 190.252 L523.27 216.178 L519.011 216.178 L519.011 212.196 Q517.46 214.557 515.4 215.715 Q513.363 216.849 510.655 216.849 Q506.187 216.849 503.872 214.071 Q501.557 211.293 501.557 205.946 M512.275 189.627 L512.275 189.627 Z" fill="#000000" fill-rule="nonzero" fill-opacity="1" /><path clip-path="url(#clip050)" d="M552.229 195.229 Q553.826 192.358 556.048 190.993 Q558.27 189.627 561.279 189.627 Q565.33 189.627 567.529 192.474 Q569.728 195.298 569.728 200.529 L569.728 216.178 L565.446 216.178 L565.446 200.668 Q565.446 196.942 564.127 195.136 Q562.807 193.33 560.099 193.33 Q556.789 193.33 554.867 195.53 Q552.946 197.729 552.946 201.525 L552.946 216.178 L548.664 216.178 L548.664 200.668 Q548.664 196.918 547.344 195.136 Q546.025 193.33 543.27 193.33 Q540.006 193.33 538.085 195.553 Q536.164 197.752 536.164 201.525 L536.164 216.178 L531.881 216.178 L531.881 190.252 L536.164 190.252 L536.164 194.28 Q537.622 191.895 539.659 190.761 Q541.696 189.627 544.497 189.627 Q547.321 189.627 549.289 191.062 Q551.279 192.497 552.229 195.229 Z" fill="#000000" fill-rule="nonzero" fill-opacity="1" /><path clip-path="url(#clip050)" d="M599.775 200.529 L599.775 216.178 L595.515 216.178 L595.515 200.668 Q595.515 196.988 594.08 195.159 Q592.645 193.33 589.775 193.33 Q586.326 193.33 584.335 195.53 Q582.344 197.729 582.344 201.525 L582.344 216.178 L578.062 216.178 L578.062 190.252 L582.344 190.252 L582.344 194.28 Q583.872 191.942 585.932 190.784 Q588.015 189.627 590.724 189.627 Q595.191 189.627 597.483 192.405 Q599.775 195.159 599.775 200.529 Z" fill="#000000" fill-rule="nonzero" fill-opacity="1" /><path clip-path="url(#clip050)" d="M624.751 212.242 L632.39 212.242 L632.39 185.877 L624.08 187.543 L624.08 183.284 L632.344 181.618 L637.02 181.618 L637.02 212.242 L644.659 212.242 L644.659 216.178 L624.751 216.178 L624.751 212.242 Z" fill="#000000" fill-rule="nonzero" fill-opacity="1" /><path clip-path="url(#clip050)" d="M657.529 181.618 L657.529 194.465 L653.594 194.465 L653.594 181.618 L657.529 181.618 M666.279 181.618 L666.279 194.465 L662.344 194.465 L662.344 181.618 L666.279 181.618 Z" fill="#000000" fill-rule="nonzero" fill-opacity="1" /><path clip-path="url(#clip050)" d="M676.395 210.298 L681.279 210.298 L681.279 214.279 L677.482 221.687 L674.496 221.687 L676.395 214.279 L676.395 210.298 Z" fill="#000000" fill-rule="nonzero" fill-opacity="1" /><path clip-path="url(#clip050)" d="M709.473 181.618 L709.473 194.465 L705.538 194.465 L705.538 181.618 L709.473 181.618 M718.223 181.618 L718.223 194.465 L714.288 194.465 L714.288 181.618 L718.223 181.618 Z" fill="#000000" fill-rule="nonzero" fill-opacity="1" /><path clip-path="url(#clip050)" d="M753.315 184.28 L753.315 189.21 Q750.954 187.011 748.269 185.923 Q745.607 184.835 742.598 184.835 Q736.672 184.835 733.524 188.469 Q730.376 192.08 730.376 198.932 Q730.376 205.761 733.524 209.395 Q736.672 213.006 742.598 213.006 Q745.607 213.006 748.269 211.918 Q750.954 210.83 753.315 208.631 L753.315 213.516 Q750.862 215.182 748.107 216.016 Q745.376 216.849 742.32 216.849 Q734.473 216.849 729.959 212.057 Q725.445 207.242 725.445 198.932 Q725.445 190.599 729.959 185.807 Q734.473 180.993 742.32 180.993 Q745.422 180.993 748.153 181.826 Q750.908 182.636 753.315 184.28 Z" fill="#000000" fill-rule="nonzero" fill-opacity="1" /><path clip-path="url(#clip050)" d="M770.399 193.238 Q766.973 193.238 764.982 195.923 Q762.991 198.585 762.991 203.238 Q762.991 207.891 764.959 210.576 Q766.95 213.238 770.399 213.238 Q773.801 213.238 775.792 210.553 Q777.783 207.867 777.783 203.238 Q777.783 198.631 775.792 195.946 Q773.801 193.238 770.399 193.238 M770.399 189.627 Q775.954 189.627 779.125 193.238 Q782.297 196.849 782.297 203.238 Q782.297 209.604 779.125 213.238 Q775.954 216.849 770.399 216.849 Q764.82 216.849 761.649 213.238 Q758.501 209.604 758.501 203.238 Q758.501 196.849 761.649 193.238 Q764.82 189.627 770.399 189.627 Z" fill="#000000" fill-rule="nonzero" fill-opacity="1" /><path clip-path="url(#clip050)" d="M789.357 180.159 L793.616 180.159 L793.616 216.178 L789.357 216.178 L789.357 180.159 Z" fill="#000000" fill-rule="nonzero" fill-opacity="1" /><path clip-path="url(#clip050)" d="M802.088 205.946 L802.088 190.252 L806.348 190.252 L806.348 205.784 Q806.348 209.465 807.783 211.316 Q809.218 213.145 812.088 213.145 Q815.537 213.145 817.528 210.946 Q819.542 208.747 819.542 204.951 L819.542 190.252 L823.801 190.252 L823.801 216.178 L819.542 216.178 L819.542 212.196 Q817.991 214.557 815.931 215.715 Q813.894 216.849 811.185 216.849 Q806.718 216.849 804.403 214.071 Q802.088 211.293 802.088 205.946 M812.806 189.627 L812.806 189.627 Z" fill="#000000" fill-rule="nonzero" fill-opacity="1" /><path clip-path="url(#clip050)" d="M852.759 195.229 Q854.357 192.358 856.579 190.993 Q858.801 189.627 861.81 189.627 Q865.861 189.627 868.06 192.474 Q870.259 195.298 870.259 200.529 L870.259 216.178 L865.977 216.178 L865.977 200.668 Q865.977 196.942 864.657 195.136 Q863.338 193.33 860.63 193.33 Q857.319 193.33 855.398 195.53 Q853.477 197.729 853.477 201.525 L853.477 216.178 L849.195 216.178 L849.195 200.668 Q849.195 196.918 847.875 195.136 Q846.556 193.33 843.801 193.33 Q840.537 193.33 838.616 195.553 Q836.695 197.752 836.695 201.525 L836.695 216.178 L832.412 216.178 L832.412 190.252 L836.695 190.252 L836.695 194.28 Q838.153 191.895 840.19 190.761 Q842.227 189.627 845.028 189.627 Q847.852 189.627 849.819 191.062 Q851.81 192.497 852.759 195.229 Z" fill="#000000" fill-rule="nonzero" fill-opacity="1" /><path clip-path="url(#clip050)" d="M900.305 200.529 L900.305 216.178 L896.046 216.178 L896.046 200.668 Q896.046 196.988 894.611 195.159 Q893.176 193.33 890.305 193.33 Q886.856 193.33 884.866 195.53 Q882.875 197.729 882.875 201.525 L882.875 216.178 L878.592 216.178 L878.592 190.252 L882.875 190.252 L882.875 194.28 Q884.403 191.942 886.463 190.784 Q888.546 189.627 891.254 189.627 Q895.722 189.627 898.014 192.405 Q900.305 195.159 900.305 200.529 Z" fill="#000000" fill-rule="nonzero" fill-opacity="1" /><path clip-path="url(#clip050)" d="M928.5 212.242 L944.819 212.242 L944.819 216.178 L922.875 216.178 L922.875 212.242 Q925.537 209.488 930.12 204.858 Q934.726 200.205 935.907 198.863 Q938.152 196.34 939.032 194.604 Q939.935 192.844 939.935 191.155 Q939.935 188.4 937.99 186.664 Q936.069 184.928 932.967 184.928 Q930.768 184.928 928.314 185.692 Q925.884 186.455 923.106 188.006 L923.106 183.284 Q925.93 182.15 928.384 181.571 Q930.838 180.993 932.875 180.993 Q938.245 180.993 941.439 183.678 Q944.634 186.363 944.634 190.854 Q944.634 192.983 943.824 194.905 Q943.037 196.803 940.93 199.395 Q940.351 200.067 937.25 203.284 Q934.148 206.479 928.5 212.242 Z" fill="#000000" fill-rule="nonzero" fill-opacity="1" /><path clip-path="url(#clip050)" d="M958.06 181.618 L958.06 194.465 L954.124 194.465 L954.124 181.618 L958.06 181.618 M966.81 181.618 L966.81 194.465 L962.874 194.465 L962.874 181.618 L966.81 181.618 Z" fill="#000000" fill-rule="nonzero" fill-opacity="1" /><path clip-path="url(#clip050)" d="M985.791 180.159 L985.791 222.428 L975.976 222.428 L975.976 219.117 L981.509 219.117 L981.509 183.469 L975.976 183.469 L975.976 180.159 L985.791 180.159 Z" fill="#000000" fill-rule="nonzero" fill-opacity="1" /></svg>
